<svg width="30" height="30" viewBox="0 0 30 30" fill="none" xmlns="http://www.w3.org/2000/svg">
<path fill-rule="evenodd" clip-rule="evenodd" d="M8.11695 7.33272C7.92715 7.4485 7.8086 7.65711 7.80843 7.87567C7.80834 7.97473 7.8754 8.30377 7.95746 8.60688C8.12803 9.23691 8.12377 9.2099 8.05338 9.21041C7.95017 9.21118 7.03813 9.67679 6.71107 9.89564C5.16967 10.9273 4.09294 12.5478 3.73672 14.3721C3.51547 15.5052 3.6804 17.3742 4.03271 17.7268C4.20195 17.8961 4.44669 17.9692 4.65222 17.9118C4.84252 17.8587 4.94867 17.7704 5.11259 17.529C5.27543 17.2891 5.59913 16.9762 5.83577 16.8299C5.93502 16.7686 6.16476 16.6684 6.34636 16.6074C6.64103 16.5084 6.7271 16.4983 7.14646 16.5134C7.57089 16.5285 7.65346 16.5455 7.9986 16.6883C8.20882 16.7753 8.44601 16.8464 8.52569 16.8464C8.73518 16.8464 8.95946 16.7014 9.12504 16.459C9.28473 16.2251 9.74446 15.7799 9.82627 15.7799C9.89874 15.7799 11.7753 22.7881 11.7125 22.8241C11.654 22.8576 10.6043 23.0562 10.0572 23.1372C8.12488 23.4233 6.3045 23.2454 4.79162 22.6227C4.24641 22.3983 3.92609 22.4469 3.71293 22.7866C3.6003 22.9661 3.61731 23.3034 3.74827 23.4874C3.96893 23.7976 5.50811 24.31 6.7638 24.4914C7.26463 24.5637 9.22398 24.5635 9.76927 24.491C11.2588 24.293 12.2363 24.0759 14.9244 23.3459C16.5995 22.891 17.6632 22.6374 18.4624 22.5024C20.8612 22.0973 22.6062 22.3779 24.1332 23.4143C24.5893 23.7239 24.6553 23.7575 24.8061 23.7575C25.0001 23.7575 25.2922 23.584 25.3796 23.4169C25.4738 23.237 25.4799 22.9862 25.3941 22.8203C25.2082 22.4606 23.9718 21.7258 23.0274 21.414C22.2379 21.1532 21.6914 21.0653 20.7041 21.0403C19.0498 20.9983 17.9013 21.1943 14.6647 22.071C13.7661 22.3144 13.0284 22.5103 13.0253 22.5063C13.014 22.4915 11.1335 15.447 11.1335 15.4194C11.1335 15.3369 11.7946 15.4978 12.1566 15.6685C12.2856 15.7293 12.4556 15.7792 12.5345 15.7794C12.7442 15.7801 12.9711 15.6331 13.1377 15.3888C13.4903 14.8718 14.1001 14.4709 14.689 14.3692C15.1871 14.2831 15.5167 14.3387 16.3278 14.6456C16.5555 14.7318 16.7612 14.7006 16.9358 14.5536C17.2307 14.3053 17.2507 14.0832 17.0359 13.4389C15.9958 10.3186 12.8507 8.3728 9.55339 8.80961L9.35878 8.83538L9.2175 8.28679C9.13979 7.98509 9.03547 7.66334 8.98576 7.57179C8.82095 7.26851 8.40828 7.15495 8.11695 7.33272ZM11.4583 10.1292C12.7537 10.3548 13.9999 11.0768 14.817 12.0752C15.094 12.4138 15.356 12.8026 15.4168 12.9657C15.4375 13.0213 15.3845 13.0319 15.0672 13.0359C14.3821 13.0445 13.7882 13.2133 13.2054 13.5651C13.0467 13.6609 12.9121 13.7329 12.9062 13.725C12.9003 13.7172 12.8329 13.5284 12.7564 13.3055C12.3935 12.2481 11.723 11.1768 10.8957 10.3324L10.632 10.0633H10.8558C10.9789 10.0633 11.25 10.0929 11.4583 10.1292ZM9.61431 10.9154C10.4399 11.601 11.1661 12.6731 11.5509 13.7748L11.6776 14.1374L11.0325 14.1399C10.4253 14.1423 10.3637 14.1503 9.98243 14.2776C9.63213 14.3944 9.15539 14.6409 8.84704 14.8645C8.75722 14.9296 8.75526 14.9259 8.68406 14.5552C8.58452 14.0372 8.55076 12.9931 8.61658 12.4683C8.67929 11.968 8.81464 11.4193 9.00234 10.9044C9.12342 10.5722 9.14686 10.5357 9.20898 10.5833C9.24751 10.6128 9.42989 10.7622 9.61431 10.9154ZM7.62102 10.9412C7.55622 11.1102 7.42236 11.7005 7.36537 12.0686C7.2237 12.9836 7.24118 13.8977 7.41793 14.82L7.49151 15.2039L6.97845 15.2071C6.27236 15.2114 5.70051 15.3787 5.08385 15.7614L4.89598 15.878L4.92569 15.413C5.01927 13.9483 5.57504 12.6858 6.56587 11.6872C6.90325 11.3471 7.50873 10.8738 7.60636 10.8738C7.62861 10.8738 7.63522 10.9041 7.62102 10.9412Z" fill="black"/>
<path d="M21.7982 6.36994C21.8139 5.77916 21.8581 5.6688 22.135 5.5275C22.4406 5.37153 22.809 5.47307 22.9848 5.76167C23.0575 5.88095 23.0695 5.97711 23.0697 6.43832C23.0698 6.92641 23.0609 6.98929 22.9731 7.1209C22.6981 7.53288 22.0666 7.493 21.8567 7.05043C21.7976 6.92577 21.7867 6.79924 21.7982 6.36994Z" fill="black"/>
<path d="M18.6124 7.56607C18.5547 7.25827 18.6859 6.97351 18.9439 6.84621C19.1163 6.76118 19.3201 6.75662 19.5009 6.83379C19.7197 6.92722 20.2823 7.53642 20.3368 7.73907C20.447 8.14866 20.1529 8.5315 19.728 8.5315C19.4674 8.5315 19.3421 8.45407 18.9676 8.06184C18.7281 7.81091 18.6336 7.67908 18.6124 7.56607Z" fill="black"/>
<path d="M24.5765 7.60123C24.6624 7.43856 25.2374 6.87556 25.3719 6.82261C25.7476 6.67471 26.1791 6.89476 26.2495 7.27017C26.3044 7.563 26.2386 7.70907 25.8906 8.06764C25.5131 8.45663 25.3908 8.5315 25.1328 8.5315C24.665 8.5315 24.3573 8.017 24.5765 7.60123Z" fill="black"/>
<path d="M17.2727 10.5906C17.2738 10.4092 17.4407 10.1454 17.6124 10.054C17.8362 9.9348 18.7259 9.93886 18.9244 10.06C19.2209 10.2409 19.3254 10.6547 19.148 10.9458C18.9908 11.2038 18.8488 11.2544 18.2797 11.2545C17.8385 11.2547 17.7528 11.2428 17.6082 11.1615C17.4249 11.0584 17.2716 10.7975 17.2727 10.5906Z" fill="black"/>
<path d="M25.985 11.1855C25.5497 10.9787 25.5137 10.3445 25.9218 10.0717C26.0534 9.98369 26.1161 9.97486 26.6082 9.97486C27.1003 9.97486 27.163 9.98369 27.2946 10.0717C27.4997 10.2088 27.5976 10.4175 27.5757 10.6713C27.5549 10.9123 27.4484 11.076 27.2446 11.18C27.0423 11.2832 26.1986 11.2869 25.985 11.1855Z" fill="black"/>
<path d="M18.653 13.5464C18.7398 13.3456 19.3153 12.7967 19.5138 12.7253C19.998 12.5512 20.4712 12.9912 20.3368 13.4905C20.2823 13.6931 19.7197 14.3023 19.5009 14.3958C18.9617 14.6258 18.4206 14.0838 18.653 13.5464Z" fill="black"/>
<path d="M24.5122 13.3191C24.5122 13.0164 24.6813 12.7962 24.9857 12.7025C25.2548 12.6198 25.4709 12.7295 25.8906 13.1619C26.24 13.5219 26.3044 13.6663 26.2485 13.9643C26.2119 14.1598 25.9729 14.399 25.7775 14.4357C25.4854 14.4905 25.3454 14.4279 24.9815 14.08C24.5895 13.7053 24.5122 13.5799 24.5122 13.3191Z" fill="black"/>
<path d="M21.791 14.7892C21.791 14.2349 21.846 14.071 22.085 13.9112C22.3747 13.7175 22.7984 13.8174 22.9848 14.1233C23.0569 14.2416 23.0695 14.3386 23.0696 14.7743C23.0697 15.3418 23.0203 15.5056 22.8003 15.6671C22.6277 15.7938 22.2446 15.7902 22.0626 15.6603C21.8428 15.5034 21.7909 15.337 21.791 14.7892Z" fill="black"/>
<path fill-rule="evenodd" clip-rule="evenodd" d="M22.0496 8.48747C21.7412 8.53867 21.2613 8.77437 21.0039 9.00112C20.2151 9.69598 20.0562 10.9244 20.6417 11.8018C21.0544 12.4203 21.6825 12.755 22.4304 12.755C23.5057 12.755 24.3981 11.9887 24.5632 10.9237C24.7391 9.78911 23.9135 8.66469 22.7714 8.48363C22.4554 8.43355 22.3718 8.43398 22.0496 8.48747ZM22.7036 11.4266C23.4406 11.1832 23.4789 10.1275 22.7615 9.82759C22.327 9.6459 21.8243 9.85089 21.6438 10.2834C21.3674 10.9453 22.0222 11.6517 22.7036 11.4266Z" fill="black"/>
</svg>
