<svg width="30" height="30" viewBox="0 0 30 30" fill="none" xmlns="http://www.w3.org/2000/svg">
<path fill-rule="evenodd" clip-rule="evenodd" d="M22.4371 6.79877C22.548 7.13205 22.3683 7.49229 22.0357 7.60338L19.745 8.36866L20.4703 10.1859L23.8865 18.5011C24.02 18.826 23.8654 19.1977 23.5413 19.3315C23.2172 19.4653 22.8463 19.3104 22.7128 18.9855L19.7017 11.6564L14.0279 18.6551C13.9074 18.8038 13.7265 18.8901 13.5354 18.8901H6.21213C5.96586 18.8901 5.74183 18.7473 5.63737 18.5238C5.53291 18.3003 5.5669 18.0364 5.72455 17.8468L10.3424 12.293L9.20823 9.59326H8.16499C7.81447 9.59326 7.53031 9.30846 7.53031 8.95715C7.53031 8.60585 7.81447 8.32105 8.16499 8.32105H12.0707C12.4212 8.32105 12.7054 8.60585 12.7054 8.95715C12.7054 9.30846 12.4212 9.59326 12.0707 9.59326H10.5855L11.4502 11.6514L19.0156 9.96647L18.3164 8.21478C18.2515 8.05212 18.2564 7.86983 18.33 7.7109C18.4035 7.55197 18.5392 7.43048 18.705 7.37508L21.6343 6.39646C21.9669 6.28537 22.3263 6.46549 22.4371 6.79877ZM18.2396 11.4425L11.9715 12.8386L13.7126 17.0266L18.2396 11.4425ZM12.5795 17.6179L10.897 13.6132L9.78509 14.9505L8.78482 16.1535L7.5672 17.6179H9.8255H11.4527H12.5795Z" fill="black"/>
<path fill-rule="evenodd" clip-rule="evenodd" d="M23.2997 22.0706C25.1332 22.0706 26.6195 20.5809 26.6195 18.7433C26.6195 16.9057 25.1332 15.416 23.2997 15.416C21.4661 15.416 19.9798 16.9057 19.9798 18.7433C19.9798 20.5809 21.4661 22.0706 23.2997 22.0706ZM23.2997 23.6364C25.996 23.6364 28.1818 21.4457 28.1818 18.7433C28.1818 16.0409 25.996 13.8502 23.2997 13.8502C20.6033 13.8502 18.4175 16.0409 18.4175 18.7433C18.4175 21.4457 20.6033 23.6364 23.2997 23.6364Z" fill="black"/>
<path fill-rule="evenodd" clip-rule="evenodd" d="M10.0202 18.7433C10.0202 20.5809 8.53384 22.0706 6.70033 22.0706C4.86682 22.0706 3.38047 20.5809 3.38047 18.7433C3.38047 16.9057 4.86682 15.416 6.70033 15.416C7.48985 15.416 8.215 15.6922 8.78482 16.1535L9.78509 14.9505C8.94421 14.2627 7.87034 13.8502 6.70033 13.8502C4.00399 13.8502 1.81818 16.0409 1.81818 18.7433C1.81818 21.4457 4.00399 23.6364 6.70033 23.6364C9.39667 23.6364 11.5825 21.4457 11.5825 18.7433C11.5825 18.356 11.5376 17.9792 11.4527 17.6179H9.8255C9.95153 17.9694 10.0202 18.3483 10.0202 18.7433Z" fill="black"/>
</svg>
