<svg width="30" height="30" viewBox="0 0 30 30" fill="none" xmlns="http://www.w3.org/2000/svg">
<path d="M20.3276 9.42078C20.3276 9.81694 20.0159 10.1381 19.6315 10.1381C19.4977 10.1381 19.3728 10.0992 19.2667 10.0319C19.0679 9.90557 18.9353 9.67913 18.9353 9.42078C18.9353 9.24208 18.9987 9.07864 19.1037 8.95306C19.2313 8.80025 19.4204 8.70348 19.6315 8.70348C20.0159 8.70348 20.3276 9.02463 20.3276 9.42078Z" fill="black"/>
<path fill-rule="evenodd" clip-rule="evenodd" d="M15.3602 6.03607C15.2986 5.70485 15.0159 5.45456 14.6765 5.45456C14.292 5.45456 13.9804 5.77571 13.9804 6.17186C13.9804 6.30356 14.0125 6.41571 14.0316 6.47499C14.0556 6.54921 14.0872 6.62367 14.1236 6.69552C14.1966 6.83928 14.3026 6.99865 14.4459 7.14908C14.7405 7.45824 15.1993 7.73304 15.8231 7.73305H15.8903C15.8073 7.81005 15.7251 7.88936 15.6438 7.97075C14.6015 9.01368 13.6123 10.4821 12.5816 12.1088C11.2782 14.1658 10.0576 16.4821 9.08629 18.513C8.64399 19.4379 8.25209 20.3063 7.92635 21.0676L6.42695 24.4384C6.32817 24.6605 6.34587 24.9191 6.4739 25.1247C6.60194 25.3302 6.82272 25.4546 7.0598 25.4546H9.5168C9.79964 25.4546 10.0544 25.2782 10.1613 25.0084L11.3222 22.079H13.036L14.0194 24.9742C14.1172 25.2619 14.3807 25.4546 14.6765 25.4546H15.8231C16.2076 25.4546 16.5193 25.1334 16.5193 24.7373C16.5193 24.3411 16.2076 24.02 15.8231 24.02H15.1704L14.4975 22.0389C15.0259 21.9922 15.5124 21.9029 15.9653 21.7634L17.0784 24.9783C17.1773 25.2639 17.4398 25.4546 17.7341 25.4546H18.8807C19.2652 25.4546 19.5769 25.1334 19.5769 24.7373C19.5769 24.3411 19.2652 24.02 18.8807 24.02H18.2249L17.2416 21.1801C18.113 20.6294 18.8022 19.8306 19.4613 18.8039C20.4482 17.2666 20.6804 15.483 20.7175 14.1885C20.9055 14.0661 21.145 13.8909 21.3867 13.661C21.7871 13.2802 22.2322 12.71 22.4139 11.9524H23.8486C24.2331 11.9524 24.5455 11.6313 24.5455 11.2351L24.5455 11.2336L24.5455 11.2318L24.5454 11.2275L24.5453 11.2162C24.5452 11.2073 24.5449 11.1961 24.5445 11.1825C24.5436 11.1553 24.5419 11.1189 24.5388 11.0743C24.5326 10.9852 24.5206 10.8627 24.4972 10.7164C24.4508 10.4262 24.3577 10.0296 24.1678 9.61218C23.804 8.81241 23.0895 7.95789 21.7729 7.63665C21.608 7.39086 21.3866 7.09734 21.0775 6.85625C20.6312 6.50811 20.0557 6.30189 19.2824 6.29849C19.1441 6.29116 19.008 6.29128 18.874 6.29845H15.8231C15.6279 6.29845 15.5134 6.22163 15.4394 6.14401C15.4011 6.10379 15.3749 6.06371 15.3602 6.03607ZM18.9192 7.73305C18.1554 7.78372 17.4161 8.1971 16.6138 8.99992C15.9538 9.66027 15.2957 10.5398 14.5924 11.5905C15.1074 11.6036 15.6559 11.6778 16.0572 11.8255C16.9279 12.1459 17.3849 12.9308 17.5378 13.7294C17.6899 14.5231 17.5682 15.4171 17.2169 16.183C16.9494 16.7661 16.4152 17.2411 15.8492 17.6174C15.2652 18.0056 14.5597 18.3457 13.836 18.6261C12.5887 19.1095 11.1986 19.4492 10.1538 19.5293C9.97233 19.9145 9.80072 20.2875 9.64025 20.6444H13.5299C14.6422 20.6444 15.4475 20.4892 16.0962 20.1855C16.9172 19.8012 17.5784 19.1366 18.3001 18.0124C19.169 16.6589 19.3312 14.9913 19.3312 13.7668C19.3312 13.488 19.4879 13.2345 19.733 13.1168L19.7398 13.1134C19.7473 13.1096 19.7605 13.1027 19.7788 13.0928C19.8153 13.0729 19.8711 13.0412 19.9397 12.9977C20.0783 12.9098 20.2616 12.7787 20.4424 12.6068C20.8115 12.2558 21.1057 11.7999 21.1057 11.2351L21.1058 11.018C21.1065 10.4666 21.107 10.0278 21.0655 9.6393C21.0204 9.21605 20.9302 8.91907 20.7752 8.67952L20.7701 8.67168C20.567 8.35781 20.4357 8.15494 20.2372 8.0001C20.0643 7.86524 19.7902 7.73305 19.2629 7.73305H18.9192ZM9.00802 22.079L8.14466 24.02H9.04911L9.81829 22.079H9.00802ZM10.9048 17.9826C11.6474 17.8454 12.5168 17.6047 13.3458 17.2834C14.0101 17.0259 14.619 16.7279 15.0944 16.4119C15.5876 16.084 15.8577 15.7888 15.9581 15.57C16.1923 15.0594 16.2618 14.4766 16.1719 14.0072C16.0829 13.5426 15.8649 13.278 15.589 13.1765C15.3673 13.0949 14.947 13.0282 14.4802 13.0232C14.1244 13.0195 13.8209 13.0527 13.6154 13.1028C12.6401 14.6623 11.7105 16.3716 10.9048 17.9826ZM22.4581 9.56899C22.486 9.86921 22.4949 10.189 22.4975 10.5178H23.021C22.9904 10.4218 22.9593 10.3336 22.9071 10.221C22.7771 9.9405 22.6653 9.77109 22.4581 9.56899Z" fill="black"/>
<path fill-rule="evenodd" clip-rule="evenodd" d="M19.6315 10.1381C20.0159 10.1381 20.3276 9.81694 20.3276 9.42078C20.3276 9.02463 20.0159 8.70348 19.6315 8.70348C19.4204 8.70348 19.2313 8.80025 19.1037 8.95306C18.9987 9.07864 18.9353 9.24208 18.9353 9.42078C18.9353 9.67913 19.0679 9.90557 19.2667 10.0319C19.3728 10.0992 19.4977 10.1381 19.6315 10.1381Z" fill="black"/>
</svg>
