<svg width="30" height="30" viewBox="0 0 30 30" fill="none" xmlns="http://www.w3.org/2000/svg">
<path fill-rule="evenodd" clip-rule="evenodd" d="M21.8566 20.7939C21.4669 20.7939 21.1111 20.6488 20.8403 20.4097C20.5213 20.1282 20.3201 19.7163 20.3201 19.2574C20.3201 19.0778 20.3509 18.9054 20.4075 18.7452C20.6185 18.1484 21.1876 17.7209 21.8566 17.7209C22.5256 17.7209 23.0947 18.1484 23.3057 18.7452C23.3623 18.9054 23.3931 19.0778 23.3931 19.2574C23.3931 19.7163 23.1919 20.1282 22.8729 20.4097C22.6021 20.6488 22.2463 20.7939 21.8566 20.7939ZM21.8566 22.4584C20.0887 22.4584 18.6556 21.0252 18.6556 19.2574C18.6556 17.4895 20.0887 16.0563 21.8566 16.0563C23.6245 16.0563 25.0576 17.4895 25.0576 19.2574C25.0576 21.0252 23.6245 22.4584 21.8566 22.4584Z" fill="black"/>
<path fill-rule="evenodd" clip-rule="evenodd" d="M9.0525 20.7939C8.66283 20.7939 8.30704 20.6488 8.03618 20.4097C7.71719 20.1282 7.516 19.7163 7.516 19.2574C7.516 19.0778 7.54681 18.9054 7.60343 18.7452C7.81435 18.1484 8.38349 17.7209 9.0525 17.7209C9.7215 17.7209 10.2906 18.1484 10.5016 18.7452C10.5582 18.9054 10.589 19.0778 10.589 19.2574C10.589 19.7163 10.3878 20.1282 10.0688 20.4097C9.79795 20.6488 9.44217 20.7939 9.0525 20.7939ZM9.0525 22.4584C7.28462 22.4584 5.85147 21.0252 5.85147 19.2574C5.85147 17.4895 7.28462 16.0563 9.0525 16.0563C10.8204 16.0563 12.2535 17.4895 12.2535 19.2574C12.2535 21.0252 10.8204 22.4584 9.0525 22.4584Z" fill="black"/>
<path fill-rule="evenodd" clip-rule="evenodd" d="M17.491 9.84636C18.1878 9.84636 18.8492 10.1531 19.2993 10.685L21.6295 13.4389C21.8798 13.7347 22.2066 13.956 22.5742 14.0785L27.12 15.5938C27.3029 15.6548 27.4264 15.826 27.4264 16.0189V18.2971C27.4264 18.5446 27.2257 18.7452 26.9782 18.7452H23.3057C23.3623 18.9054 23.3931 19.0778 23.3931 19.2574C23.3931 19.7163 23.1919 20.1282 22.8729 20.4097H26.9782C28.145 20.4097 29.0909 19.4639 29.0909 18.2971V16.0189C29.0909 15.1095 28.509 14.3022 27.6463 14.0146L23.1006 12.4994C23.0226 12.4734 22.9533 12.4265 22.9002 12.3637L20.57 9.60984C19.8037 8.70416 18.6774 8.18182 17.491 8.18182H10.3242C8.84047 8.18182 7.47651 8.99651 6.77305 10.3029L5.64341 12.4008C5.59695 12.4871 5.52349 12.5558 5.43428 12.5963L3.05663 13.6771C2.30241 14.0199 1.81818 14.7719 1.81818 15.6004V18.2971C1.81818 19.4639 2.76406 20.4097 3.93086 20.4097H8.03618C7.71719 20.1282 7.516 19.7163 7.516 19.2574C7.516 19.0778 7.54681 18.9054 7.60343 18.7452H3.93086C3.68336 18.7452 3.48272 18.5446 3.48272 18.2971V15.6004C3.48272 15.4247 3.58543 15.2652 3.74542 15.1924L6.12306 14.1117C6.54364 13.9205 6.88996 13.5968 7.10898 13.19L8.23862 11.0921C8.65177 10.3248 9.45282 9.84636 10.3242 9.84636H17.491ZM10.5016 18.7452H20.4075C20.3509 18.9054 20.3201 19.0778 20.3201 19.2574C20.3201 19.7163 20.5213 20.1282 20.8403 20.4097H10.0688C10.3878 20.1282 10.589 19.7163 10.589 19.2574C10.589 19.0778 10.5582 18.9054 10.5016 18.7452Z" fill="black"/>
</svg>
