<svg width="30" height="30" viewBox="0 0 30 30" fill="none" xmlns="http://www.w3.org/2000/svg">
<path fill-rule="evenodd" clip-rule="evenodd" d="M21.8566 22.1572C21.4669 22.1572 21.1111 22.0121 20.8403 21.773C20.5213 21.4915 20.3201 21.0796 20.3201 20.6207C20.3201 20.4411 20.3509 20.2687 20.4075 20.1085C20.6184 19.5117 21.1876 19.0842 21.8566 19.0842C22.5256 19.0842 23.0947 19.5117 23.3057 20.1085C23.3623 20.2687 23.3931 20.4411 23.3931 20.6207C23.3931 21.0796 23.1919 21.4915 22.8729 21.773C22.602 22.0121 22.2463 22.1572 21.8566 22.1572ZM21.8566 23.8217C20.0887 23.8217 18.6556 22.3885 18.6556 20.6207C18.6556 18.8528 20.0887 17.4196 21.8566 17.4196C23.4501 17.4196 24.7717 18.5841 25.0169 20.1085C25.0437 20.2753 25.0576 20.4463 25.0576 20.6207C25.0576 21.0269 24.9819 21.4155 24.8439 21.773C24.3813 22.9715 23.2182 23.8217 21.8566 23.8217Z" fill="black"/>
<path fill-rule="evenodd" clip-rule="evenodd" d="M9.05249 22.1572C8.66282 22.1572 8.30703 22.0121 8.03617 21.773C7.71719 21.4915 7.516 21.0796 7.516 20.6207C7.516 20.4411 7.5468 20.2687 7.60342 20.1085C7.81435 19.5117 8.38349 19.0842 9.05249 19.0842C9.72149 19.0842 10.2906 19.5117 10.5016 20.1085C10.5582 20.2687 10.589 20.4411 10.589 20.6207C10.589 21.0796 10.3878 21.4915 10.0688 21.773C9.79795 22.0121 9.44216 22.1572 9.05249 22.1572ZM9.05249 23.8217C7.69086 23.8217 6.52779 22.9715 6.06517 21.773C5.92714 21.4155 5.85146 21.0269 5.85146 20.6207C5.85146 20.4463 5.8654 20.2753 5.89222 20.1085C6.13735 18.5841 7.45894 17.4196 9.05249 17.4196C10.8204 17.4196 12.2535 18.8528 12.2535 20.6207C12.2535 22.3885 10.8204 23.8217 9.05249 23.8217Z" fill="black"/>
<path fill-rule="evenodd" clip-rule="evenodd" d="M10.5016 20.1085H20.4075C20.3509 20.2687 20.3201 20.4411 20.3201 20.6207C20.3201 21.0796 20.5213 21.4915 20.8403 21.773H10.0688C10.3878 21.4915 10.589 21.0796 10.589 20.6207C10.589 20.4411 10.5582 20.2687 10.5016 20.1085Z" fill="black"/>
<path d="M3.48271 19.6604C3.48271 19.9079 3.68335 20.1085 3.93085 20.1085H5.89222C5.8654 20.2753 5.85146 20.4463 5.85146 20.6207C5.85146 21.0269 5.92714 21.4155 6.06517 21.773H3.93085C2.76406 21.773 1.81818 20.8272 1.81818 19.6604V16.9637C1.81818 16.1352 2.30241 15.3832 3.05662 15.0404L5.43427 13.9597C5.52348 13.9191 5.59694 13.8504 5.6434 13.7641L6.77304 11.6662C7.4765 10.3598 8.84046 9.54513 10.3242 9.54513H14.1677C14.6274 9.54513 15 9.91775 15 10.3774C15 10.837 14.6274 11.2097 14.1677 11.2097H10.3242C9.45282 11.2097 8.65176 11.6881 8.23862 12.4554L7.10897 14.5533C6.88995 14.9601 6.54363 15.2838 6.12306 15.475L3.74541 16.5557C3.58542 16.6285 3.48271 16.788 3.48271 16.9637V19.6604Z" fill="black"/>
<path d="M22.5742 15.4418C22.2066 15.3193 21.8798 15.098 21.6295 14.8022L20.3201 13.1817C20.0205 12.8159 20.0852 12.2743 20.4626 11.9894C20.8195 11.72 21.3256 11.7806 21.6088 12.1267L22.9002 13.727C22.9533 13.7898 23.0226 13.8367 23.1006 13.8627L27.6463 15.3779C28.509 15.6655 29.0909 16.4729 29.0909 17.3822V19.6604C29.0909 20.8272 28.145 21.773 26.9782 21.773H24.8439C24.9819 21.4155 25.0576 21.0269 25.0576 20.6207C25.0576 20.4463 25.0437 20.2753 25.0169 20.1085H26.9782C27.2257 20.1085 27.4264 19.9079 27.4264 19.6604V17.3822C27.4264 17.1893 27.3029 17.0181 27.1199 16.9571L22.5742 15.4418Z" fill="black"/>
<path d="M18.0073 7.28689C18.0853 7.31913 18.1087 7.42595 18.1087 7.75087C18.1087 8.03314 18.1126 8.06416 18.1477 8.06432C18.397 8.0656 18.9484 8.18442 19.081 8.26546C19.2446 8.36539 19.2822 8.54314 19.2029 8.84122C19.1504 9.03868 19.1116 9.10724 19.0168 9.16939C18.9223 9.23139 18.8235 9.22849 18.5733 9.15633C18.1392 9.0311 17.6916 9.02709 17.4413 9.14617C17.3154 9.20609 17.2673 9.25239 17.2137 9.36541C17.1513 9.49702 17.1585 9.64443 17.2333 9.76419C17.3473 9.94677 17.5153 10.0497 18.1588 10.3311C18.934 10.6702 19.2318 10.9033 19.4112 11.3115C19.5148 11.5471 19.5422 11.6935 19.5419 12.0088C19.5417 12.2306 19.5318 12.3101 19.4843 12.4689C19.3564 12.8966 19.0852 13.2255 18.6777 13.4472C18.5758 13.5026 18.2759 13.6095 18.1254 13.644L18.0641 13.6581V14.0537C18.0641 14.5686 18.0821 14.5453 17.6832 14.5453C17.5229 14.5453 17.3733 14.5347 17.3508 14.5218C17.283 14.4827 17.2607 14.3615 17.2607 14.0308V13.7156L17.0076 13.6866C16.8683 13.6708 16.6357 13.6255 16.4907 13.5861C15.9438 13.4375 15.8564 13.3189 15.9645 12.8716C16.0175 12.652 16.0689 12.558 16.1669 12.5016C16.2718 12.4413 16.3733 12.4454 16.5706 12.5176C16.9672 12.6629 17.5151 12.7223 17.7963 12.6505C18.2167 12.5431 18.3925 12.2075 18.2077 11.8651C18.1046 11.674 17.8857 11.5353 17.3614 11.329C16.3593 10.9346 15.9554 10.5128 15.9091 9.81196C15.8774 9.33269 16.0603 8.87325 16.4072 8.56064C16.5633 8.41997 16.9239 8.2287 17.1436 8.17006L17.3053 8.12688V7.78186C17.3053 7.28241 17.312 7.27384 17.6996 7.27276C17.849 7.27232 17.9874 7.27871 18.0073 7.28689Z" fill="black"/>
</svg>
