<svg width="30" height="30" viewBox="0 0 30 30" fill="none" xmlns="http://www.w3.org/2000/svg">
<path fill-rule="evenodd" clip-rule="evenodd" d="M3.92601 9.65837C3.56964 9.65837 3.28075 9.95002 3.28075 10.3098V17.9531C3.28075 18.3129 3.56964 18.6045 3.926 18.6045H5.30945C5.54987 17.3669 6.63021 16.4331 7.92658 16.4331C9.22295 16.4331 10.3033 17.3669 10.5437 18.6045H20.7955C21.036 17.3669 22.1163 16.4331 23.4127 16.4331C24.709 16.4331 25.7894 17.3669 26.0298 18.6045H26.9831C27.3394 18.6045 27.6283 18.3129 27.6283 17.9531V15.2476L22.9188 14.8697H6.33495C5.74101 14.8697 5.25953 14.3836 5.25953 13.784V11.4389C5.25953 10.8393 5.74101 10.3532 6.33495 10.3532H22.8649L25.0267 9.85208L24.9536 9.7949C24.8405 9.7064 24.7014 9.65837 24.5583 9.65837H3.92601ZM26.241 11.0855L23.6791 11.6795V13.4495L27.2576 13.7367L26.241 11.0855ZM22.2165 13.3932V11.8298H18.3367V13.3932H22.2165ZM16.8741 13.3932V11.8298H12.3143V13.3932H16.8741ZM10.8517 13.3932V11.8298H6.7221V13.3932H10.8517ZM25.9069 20.0811C25.5251 21.0965 24.5524 21.8182 23.4127 21.8182C22.2723 21.8182 21.2991 21.0956 20.9177 20.0793C20.9008 20.0805 20.8836 20.0811 20.8663 20.0811H10.459C10.4463 20.0811 10.4337 20.0807 10.4212 20.0801C10.0396 21.096 9.06664 21.8182 7.92658 21.8182C6.78688 21.8182 5.81414 21.0965 5.43231 20.0811H3.926C2.76188 20.0811 1.81818 19.1283 1.81818 17.9531V10.3098C1.81818 9.13455 2.76188 8.18182 3.92601 8.18182H24.5583C25.0258 8.18182 25.48 8.33871 25.8495 8.62781L27.1424 9.63939C27.2475 9.72163 27.3284 9.83123 27.3764 9.95642L29.0416 14.2992C29.0742 14.3842 29.0909 14.4746 29.0909 14.5657V17.9531C29.0909 19.1283 28.1472 20.0811 26.9831 20.0811H25.9069ZM7.92658 17.9097C7.26137 17.9097 6.7221 18.4541 6.7221 19.1257C6.7221 19.7972 7.26137 20.3416 7.92658 20.3416C8.59179 20.3416 9.13105 19.7972 9.13105 19.1257C9.13105 18.4541 8.59179 17.9097 7.92658 17.9097ZM23.4127 17.9097C22.7475 17.9097 22.2082 18.4541 22.2082 19.1257C22.2082 19.7972 22.7475 20.3416 23.4127 20.3416C24.0779 20.3416 24.6171 19.7972 24.6171 19.1257C24.6171 18.4541 24.0779 17.9097 23.4127 17.9097Z" fill="black"/>
</svg>
