<svg width="30" height="30" viewBox="0 0 30 30" fill="none" xmlns="http://www.w3.org/2000/svg">
<path fill-rule="evenodd" clip-rule="evenodd" d="M17.5508 6.43104C18.0345 5.75579 18.8052 5.45455 19.8637 5.45456C20.2904 5.45456 20.6364 5.80052 20.6364 6.22729V8.07061C20.6364 8.09773 20.6449 8.12993 20.6747 8.16693C20.7065 8.20651 20.7589 8.24534 20.8268 8.26695C22.4915 8.79598 23.1585 9.83083 23.9473 11.0548C24.1733 11.4054 24.3188 11.9315 24.0835 12.4547C23.9452 12.7622 23.6848 13.2008 23.2182 13.53C22.6759 13.9127 21.9623 14.0253 21.4478 14.0622C21.3543 14.069 21.2549 14.115 21.1805 14.1922C21.1075 14.2679 21.0822 14.3472 21.084 14.4102C21.0982 14.8995 21.0881 15.5049 20.9847 16.0167C20.8606 16.6312 20.5677 17.2827 20.2911 17.81C20.0084 18.3489 19.7129 18.8135 19.5462 19.065C19.5239 19.0986 19.5194 19.1206 19.5185 19.1307C19.4634 19.7132 19.3634 21.1235 19.5322 22.0218C19.5777 22.2638 19.6608 22.5609 19.7596 22.8661C20.1069 23.9382 19.3523 25.161 18.1303 25.161H8.04547C7.16692 25.161 6.36365 24.4999 6.36365 23.5224L6.36365 20.3113C6.36365 15.3309 10.5084 12.7024 13.9849 12.5085C14.0591 12.5044 14.1039 12.4771 14.1248 12.4557L16.8247 9.70384C16.8508 9.67726 16.8787 9.62287 16.8742 9.54313C16.856 9.22361 16.8431 8.7206 16.923 8.3051C16.9321 8.25781 16.9413 8.20875 16.9507 8.15821C17.0486 7.63541 17.176 6.95447 17.5508 6.43104ZM18.8073 7.33093C18.6408 7.56335 18.5725 7.91178 18.4406 8.59706C18.3996 8.81062 18.3997 9.14889 18.4171 9.45511C18.444 9.92604 18.2881 10.4191 17.9279 10.7862L15.228 13.5381C14.907 13.8652 14.4843 14.0285 14.071 14.0515C11.1599 14.2139 7.9091 16.3828 7.9091 20.3113L7.9091 23.5224C7.9091 23.5421 7.91279 23.5531 7.91528 23.5587C7.918 23.5649 7.9224 23.5717 7.93018 23.579C7.94548 23.5933 7.98179 23.6156 8.04547 23.6156H16.2199C15.9933 23.3603 15.6401 23.1348 15.1352 23.0169C14.3751 22.8392 13.7034 22.2169 13.5847 21.3644C13.4931 20.7061 13.2803 20.1868 12.9343 19.8353C12.6048 19.5007 12.0685 19.2309 11.1364 19.2309C10.7096 19.2309 10.3636 18.8849 10.3636 18.4582C10.3636 18.0314 10.7096 17.6854 11.1364 17.6854C12.3916 17.6854 13.3574 18.0623 14.0355 18.751C14.6971 19.4229 14.9975 20.3034 15.1154 21.1514C15.1352 21.2935 15.2693 21.4611 15.4869 21.512C16.7199 21.8001 17.6519 22.6078 17.9712 23.6156H18.1303C18.1762 23.6156 18.2216 23.5958 18.2594 23.5409C18.2993 23.4827 18.3112 23.4097 18.2894 23.3423C18.1819 23.0104 18.0763 22.6425 18.0133 22.3072C17.7986 21.1644 17.9269 19.545 17.9799 18.9851C18.0075 18.6928 18.1124 18.431 18.2579 18.2114C18.408 17.9848 18.6729 17.5679 18.9226 17.092C19.1783 16.6045 19.3896 16.1079 19.4699 15.7107C19.5375 15.3759 19.5525 14.9127 19.5392 14.4549C19.5088 13.4044 20.3797 12.5896 21.3371 12.5208C21.7929 12.488 22.1461 12.3951 22.3272 12.2673C22.4675 12.1683 22.5711 12.0261 22.6435 11.8845C21.8582 10.6665 21.4471 10.0857 20.3588 9.73981C19.6793 9.52387 19.0909 8.89958 19.0909 8.07061V7.11456C18.93 7.18125 18.8548 7.26463 18.8073 7.33093Z" fill="black"/>
</svg>
