<svg width="30" height="30" viewBox="0 0 30 30" fill="none" xmlns="http://www.w3.org/2000/svg">
<path fill-rule="evenodd" clip-rule="evenodd" d="M8.35077 8.80965C8.35077 7.96084 9.0527 7.27274 9.91859 7.27274H10.7896C11.6555 7.27274 12.3574 7.96084 12.3574 8.80965V11.5419H13.2941L13.8682 9.29074C14.0427 8.60655 14.6698 8.12658 15.3892 8.12658H20.1262C20.8456 8.12658 21.4727 8.60655 21.6472 9.29074L22.2213 11.5419H22.8092C23.4685 11.5419 24.0573 11.9463 24.2826 12.5536L25.6494 16.2381H27.5425C28.7445 16.2381 29.5406 17.5448 28.8121 18.5728C28.3177 19.2706 27.6472 20.1464 26.9605 20.8195L26.928 20.8514C26.4423 21.3277 25.9571 21.8034 25.3891 22.1473C24.778 22.5173 24.0897 22.7273 23.2015 22.7273C22.5769 22.7273 21.9862 22.449 21.5961 21.9709L20.8062 21.0031C20.5946 20.7437 20.2741 20.5927 19.9352 20.5927C19.5964 20.5927 19.2759 20.7437 19.0642 21.0031L18.2744 21.9709C17.8842 22.449 17.2935 22.7273 16.6689 22.7273C16.0444 22.7273 15.4536 22.449 15.0635 21.9709L14.2736 21.0031C14.062 20.7437 13.7415 20.5927 13.4026 20.5927C13.0638 20.5927 12.7433 20.7437 12.5316 21.0031L11.7418 21.9709C11.3516 22.449 10.7609 22.7273 10.1363 22.7273C9.51176 22.7273 8.92105 22.449 8.53088 21.9709L7.78144 21.0525C7.54424 20.7619 7.18511 20.5927 6.8054 20.5927C6.4739 20.5927 6.15597 20.7218 5.92156 20.9516L5.23807 21.6216C5.11807 21.7392 4.99097 21.8483 4.85775 21.9484C4.84852 21.9556 4.83909 21.9626 4.82945 21.9694C4.16606 22.4585 3.35466 22.7273 2.51499 22.7273C2.13015 22.7273 1.81818 22.4215 1.81818 22.0442C1.81818 21.667 2.13015 21.3611 2.51499 21.3611C2.89209 21.3611 3.26027 21.2762 3.59286 21.117L2.65217 18.2448C2.32727 17.2528 3.08211 16.2381 4.14494 16.2381H5.07546L6.4422 12.5536C6.66751 11.9463 7.25635 11.5419 7.91563 11.5419H8.35077V8.80965ZM9.74439 11.5419H10.9638V8.80965C10.9638 8.71534 10.8858 8.63888 10.7896 8.63888H9.91859C9.82238 8.63888 9.74439 8.71534 9.74439 8.80965V11.5419ZM6.55836 16.2381H24.1665L23.6608 14.8749H19.4997C19.1149 14.8749 18.8029 14.5691 18.8029 14.1918C18.8029 13.8146 19.1149 13.5087 19.4997 13.5087H23.154L22.9729 13.0205C22.9479 12.953 22.8824 12.9081 22.8092 12.9081H7.91563C7.84238 12.9081 7.77695 12.953 7.75192 13.0205L7.57081 13.5087H9.91859C10.3034 13.5087 10.6154 13.8146 10.6154 14.1918C10.6154 14.5691 10.3034 14.8749 9.91859 14.8749H7.06404L6.55836 16.2381ZM4.74676 20.1712L4.93613 19.9855C5.43189 19.4996 6.10429 19.2265 6.8054 19.2265C7.60847 19.2265 8.368 19.5844 8.86967 20.1991L9.61911 21.1174C9.74481 21.2715 9.93512 21.3611 10.1363 21.3611C10.3376 21.3611 10.5279 21.2715 10.6536 21.1174L11.4434 20.1496C11.9195 19.5662 12.6404 19.2265 13.4026 19.2265C14.1648 19.2265 14.8857 19.5662 15.3619 20.1496L16.1517 21.1174C16.2774 21.2715 16.4677 21.3611 16.6689 21.3611C16.8702 21.3611 17.0605 21.2715 17.1862 21.1174L17.976 20.1496C18.4521 19.5662 19.173 19.2265 19.9352 19.2265C20.6974 19.2265 21.4183 19.5662 21.8945 20.1496L22.6843 21.1174C22.81 21.2715 23.0003 21.3611 23.2015 21.3611C23.8376 21.3611 24.2713 21.2183 24.6568 20.985C25.0727 20.7332 25.4495 20.3687 25.9751 19.8535C26.5733 19.2671 27.1878 18.4704 27.6676 17.7934C27.6886 17.7638 27.6922 17.7428 27.6928 17.7298C27.6934 17.7143 27.6896 17.6953 27.6786 17.6755C27.6574 17.6376 27.6153 17.6042 27.5425 17.6042H4.14494C4.02685 17.6042 3.94298 17.717 3.97908 17.8272L4.74676 20.1712ZM20.7848 11.5419L20.2952 9.62208C20.2758 9.54606 20.2061 9.49273 20.1262 9.49273H15.3892C15.3093 9.49273 15.2396 9.54606 15.2202 9.62208L14.7306 11.5419H20.7848Z" fill="black"/>
<path d="M13.5114 14.3599C13.5114 14.7607 13.1799 15.0857 12.771 15.0857C12.3621 15.0857 12.0306 14.7607 12.0306 14.3599C12.0306 13.9591 12.3621 13.6341 12.771 13.6341C13.1799 13.6341 13.5114 13.9591 13.5114 14.3599Z" fill="black"/>
<path d="M16.4512 14.3597C16.4512 14.7605 16.1197 15.0854 15.7108 15.0854C15.3019 15.0854 14.9704 14.7605 14.9704 14.3597C14.9704 13.9588 15.3019 13.6339 15.7108 13.6339C16.1197 13.6339 16.4512 13.9588 16.4512 14.3597Z" fill="black"/>
</svg>
