<svg width="30" height="30" viewBox="0 0 30 30" fill="none" xmlns="http://www.w3.org/2000/svg">
<path fill-rule="evenodd" clip-rule="evenodd" d="M9.1787 5.56448C6.33247 6.63393 3.94954 7.54757 3.88327 7.59477C3.65712 7.75591 3.63628 7.85146 3.63637 8.72707C3.63641 9.60942 3.66437 9.73218 3.9056 9.90943C4.00502 9.98252 4.10248 10.0003 4.47024 10.0123L4.9147 10.0268V10.4843C4.9147 10.9954 4.97926 11.2792 5.1735 11.6217C5.33292 11.9028 5.68729 12.2353 5.96765 12.3668L6.18963 12.4708V15.8181V19.1653L5.96765 19.2694C5.68729 19.4008 5.33292 19.7333 5.1735 20.0145C4.97411 20.366 4.91491 20.6375 4.91295 21.2091L4.91121 21.7237L4.68923 21.8278C4.40909 21.9591 4.05471 22.2915 3.89478 22.5729C3.66104 22.984 3.6301 23.1817 3.64451 24.1704C3.65912 25.1698 3.67412 25.2238 3.98022 25.38C4.11816 25.4504 4.71015 25.4545 14.5455 25.4545C24.3808 25.4545 24.9728 25.4504 25.1107 25.38C25.4168 25.2238 25.4318 25.1698 25.4464 24.1704C25.4608 23.1817 25.4299 22.984 25.1961 22.5729C25.0362 22.2915 24.6818 21.9591 24.4017 21.8278L24.1797 21.7237L24.178 21.2091C24.176 20.6375 24.1168 20.366 23.9174 20.0145C23.758 19.7333 23.4036 19.4008 23.1233 19.2694L22.9013 19.1653V15.8181V12.4708L23.1233 12.3668C23.4036 12.2353 23.758 11.9028 23.9174 11.6217C24.1117 11.2792 24.1762 10.9954 24.1762 10.4843V10.0268L24.6207 10.0123C24.9884 10.0003 25.0859 9.98252 25.1853 9.90943C25.4266 9.73218 25.4545 9.60942 25.4545 8.72707C25.4546 7.85112 25.4338 7.75595 25.2072 7.59443C25.0221 7.46259 14.7693 3.65695 14.5455 3.63703C14.376 3.62194 13.7525 3.84584 9.1787 5.56448ZM19.3559 6.75711C23.786 8.40369 24.1743 8.5557 24.1752 8.64392L24.1762 8.73986H14.5455H4.9147L4.91543 8.64392C4.91611 8.55579 5.30543 8.40173 9.69884 6.7511C12.3293 5.7628 14.4942 4.9569 14.5096 4.96023C14.525 4.96351 16.7059 5.77213 19.3559 6.75711ZM22.8911 10.4425C22.8753 10.8989 22.8326 11.0027 22.5831 11.189L22.4654 11.2769H14.5455H6.62553L6.50783 11.189C6.25836 11.0027 6.21558 10.8989 6.19977 10.4425L6.18515 10.0191H14.5455H22.9058L22.8911 10.4425ZM8.74996 15.8181V19.0587H8.11075H7.47154V15.8181V12.5774H8.11075H8.74996V15.8181ZM12.5852 15.8181V19.0587H11.3068H10.0284V15.8181V12.5774H11.3068H12.5852V15.8181ZM15.1421 15.8181V19.0587H14.5028H13.8636V15.8181V12.5774H14.5028H15.1421V15.8181ZM19.0625 15.8181V19.0587H17.7415H16.4205V15.8181V12.5774H17.7415H19.0625V15.8181ZM21.6194 15.8181V19.0587H20.9802H20.341V15.8181V12.5774H20.9802H21.6194V15.8181ZM22.5831 20.4471C22.8326 20.6335 22.8753 20.7372 22.8911 21.1937L22.9058 21.6171H14.5495H6.19312V21.2574C6.19312 20.8667 6.23356 20.7127 6.37709 20.5563C6.58598 20.3287 6.12835 20.3401 14.5956 20.35L22.4654 20.3592L22.5831 20.4471ZM23.8615 23.0055C24.111 23.1919 24.1538 23.2956 24.1696 23.7521L24.1842 24.1755H14.5495H4.9147V23.8158C4.9147 23.4251 4.95514 23.2711 5.09867 23.1147C5.30811 22.8865 4.75055 22.8986 14.5956 22.9084L23.7438 22.9176L23.8615 23.0055Z" fill="black"/>
</svg>
