<svg width="30" height="30" viewBox="0 0 30 30" fill="none" xmlns="http://www.w3.org/2000/svg">
<path fill-rule="evenodd" clip-rule="evenodd" d="M19.6818 5.59094L17.6818 5.59096C16.2509 5.59097 15.0909 6.75096 15.0909 8.18187V8.87233C15.07 8.93331 15.0372 9.02355 14.9901 9.13775C14.8899 9.38101 14.7259 9.73117 14.4772 10.1379C13.9799 10.9509 13.1471 11.9848 11.8083 12.8488C11.5738 13.0001 11.3402 13.1486 11.1091 13.2955C9.95753 14.0276 8.86818 14.7201 8.05052 15.5201C7.01161 16.5365 6.36364 17.7617 6.36365 19.506L6.36365 22.7273C6.36365 23.6562 7.11668 24.4091 8.04547 24.4091H18.1372C19.355 24.4091 20.1118 23.1927 19.7671 22.1205C19.6654 21.8044 19.5793 21.4946 19.5325 21.2425C19.3626 20.3264 19.4641 18.889 19.519 18.303C19.52 18.2928 19.5245 18.2709 19.5463 18.2376C19.712 17.9844 20.0078 17.5139 20.2909 16.9675C20.5681 16.4326 20.8612 15.7725 20.9851 15.1511C21.0891 14.6296 21.0984 14.0106 21.0836 13.5119C21.0817 13.4497 21.1067 13.3709 21.1797 13.2952C21.2543 13.218 21.3542 13.1716 21.4485 13.1647C21.9639 13.1272 22.6791 13.0129 23.2221 12.6247C23.4315 12.475 23.5657 12.2731 23.6514 12.1145C23.7422 11.9464 23.8129 11.7619 23.8692 11.5843C23.9819 11.2289 24.0618 10.8225 24.1188 10.4565C24.1766 10.0857 24.2145 9.73189 24.238 9.47256C24.2498 9.34232 24.2581 9.23453 24.2635 9.15864C24.2662 9.12066 24.2682 9.09059 24.2695 9.0696L24.271 9.04504L24.2714 9.03812L24.2716 9.03492C24.2833 8.82288 24.2073 8.61535 24.0613 8.46108C23.9154 8.30681 23.7124 8.2194 23.5 8.2194L21.5004 8.21938C21.4247 8.21938 21.3636 8.15787 21.3636 8.08302V7.27276C21.3636 6.34391 20.6107 5.59094 19.6818 5.59094ZM15.8292 10.8888L15.7956 10.9442C15.202 11.9148 14.2165 13.1339 12.6463 14.1473C12.3854 14.3157 12.1345 14.4756 11.8936 14.629C10.7438 15.3615 9.82286 15.9482 9.13131 16.6248C8.35204 17.3872 7.9091 18.2272 7.9091 19.506L7.9091 22.7273C7.9091 22.8026 7.9701 22.8637 8.04547 22.8637H15.7195C15.6996 22.8017 15.6766 22.7445 15.6504 22.6922C15.5535 22.498 15.3995 22.3367 15.0836 22.2409C14.3934 22.0317 13.7038 21.4522 13.5859 20.5802C13.495 19.9074 13.2814 19.3754 12.9335 19.0158C12.6034 18.6747 12.0678 18.4012 11.1364 18.4012C10.7096 18.4012 10.3636 18.0552 10.3636 17.6285C10.3636 17.2017 10.7096 16.8557 11.1364 16.8557C12.3979 16.8557 13.3665 17.2409 14.0441 17.9411C14.7038 18.6229 15.0014 19.515 15.1175 20.3732C15.1341 20.4963 15.261 20.6798 15.5319 20.7619C16.2624 20.9833 16.7501 21.435 17.0331 22.0018C17.1721 22.2802 17.2559 22.5742 17.3044 22.8637H18.1372C18.183 22.8637 18.2283 22.8439 18.2658 22.7896C18.3053 22.7322 18.3172 22.6603 18.2958 22.5936C18.1857 22.2513 18.0771 21.8702 18.013 21.5243C17.7982 20.3663 17.9275 18.7222 17.9803 18.1588C18.0074 17.8695 18.1102 17.6098 18.2531 17.3913C18.4026 17.163 18.6682 16.74 18.9188 16.2564C19.1754 15.7612 19.3885 15.2549 19.4695 14.8489C19.5383 14.5036 19.5528 14.0261 19.5388 13.5579C19.5074 12.5053 20.3814 11.6929 21.3363 11.6234C21.7604 11.5925 22.0948 11.5089 22.2843 11.3932L22.2918 11.3798C22.3206 11.3265 22.3569 11.2405 22.3961 11.117C22.4745 10.8699 22.5399 10.5515 22.5918 10.2187C22.6161 10.0628 22.6366 9.90899 22.6537 9.76485L21.5004 9.76483C20.572 9.76482 19.8182 9.01231 19.8182 8.08302V7.27276C19.8182 7.19745 19.7571 7.1364 19.6818 7.1364L17.6818 7.13641C17.1044 7.13642 16.6364 7.60448 16.6364 8.18187V9.40319C16.6364 9.57892 16.7788 9.72138 16.9546 9.72138C17.1303 9.72138 17.2727 9.57892 17.2727 9.40319V8.61663C17.2727 8.18987 17.6187 7.8439 18.0455 7.8439C18.4722 7.8439 18.8182 8.18987 18.8182 8.61663V9.40319C18.8182 10.4325 17.9838 11.2668 16.9546 11.2668C16.5318 11.2668 16.1419 11.1261 15.8292 10.8888Z" fill="black"/>
</svg>
