<svg width="30" height="30" viewBox="0 0 30 30" fill="none" xmlns="http://www.w3.org/2000/svg">
<path d="M6.93826 23.7454C6.49643 23.7454 6.13826 24.1036 6.13826 24.5454C6.13826 24.9873 6.49643 25.3454 6.93826 25.3454V23.7454ZM13.7564 25.3454C14.1983 25.3454 14.5564 24.9873 14.5564 24.5454C14.5564 24.1036 14.1983 23.7454 13.7564 23.7454V25.3454ZM16.0292 23.7454C15.5873 23.7454 15.2292 24.1036 15.2292 24.5454C15.2292 24.9873 15.5873 25.3454 16.0292 25.3454V23.7454ZM23.7564 20L24.5418 19.8478L23.7564 20ZM13.8886 15.9351L13.3466 15.3466L13.3466 15.3466L13.8886 15.9351ZM9.8928 13.7454C9.45098 13.7454 9.0928 14.1036 9.0928 14.5454C9.0928 14.9873 9.45098 15.3454 9.8928 15.3454V13.7454ZM6.47756 23.5825L7.27269 23.4943L7.27269 23.4943L6.47756 23.5825ZM6.48371 20L5.69832 19.8478L5.69832 19.8478L6.48371 20ZM6.48532 23.6909L7.28393 23.6436L7.28393 23.6436L6.48532 23.6909ZM14.211 25.3454C14.6528 25.3454 15.011 24.9873 15.011 24.5454C15.011 24.1036 14.6528 23.7454 14.211 23.7454V25.3454ZM23.7626 23.5825L24.5577 23.6708L23.7626 23.5825ZM23.7548 23.6909L22.9562 23.6436L23.7548 23.6909ZM13.5863 4.60627L13.8246 5.36994L13.8247 5.36993L13.5863 4.60627ZM12.6467 7.0837L13.343 6.68967L12.6467 7.0837ZM14.7083 8.94439L15.1109 8.25302L15.1049 8.24961L14.7083 8.94439ZM15.5883 8.91092L15.1774 8.22451L15.1774 8.22455L15.5883 8.91092ZM17.5833 7.10269L18.2723 7.50923L18.2723 7.50921L17.5833 7.10269ZM17.0511 4.77596L17.4499 4.08247L17.4499 4.08247L17.0511 4.77596ZM15.1214 4.86287L14.7095 4.17706C14.4608 4.32645 14.3124 4.59882 14.3218 4.88882L15.1214 4.86287ZM15.1217 4.87088L14.7708 5.58983C15.0229 5.71286 15.321 5.69487 15.5565 5.54241C15.7919 5.38994 15.9304 5.12529 15.9213 4.84492L15.1217 4.87088ZM14.1327 4.54922L14.1021 5.34864L14.1021 5.34864L14.1327 4.54922ZM12.5019 12.2727C12.5019 13.0861 11.8425 13.7454 11.0292 13.7454V15.3454C12.7262 15.3454 14.1019 13.9697 14.1019 12.2727H12.5019ZM11.0292 13.7454C10.2158 13.7454 9.55643 13.0861 9.55643 12.2727H7.95643C7.95643 13.9697 9.33214 15.3454 11.0292 15.3454V13.7454ZM9.55643 12.2727C9.55643 11.4593 10.2158 10.8 11.0292 10.8V9.19999C9.33214 9.19999 7.95643 10.5757 7.95643 12.2727H9.55643ZM11.0292 10.8C11.8425 10.8 12.5019 11.4593 12.5019 12.2727H14.1019C14.1019 10.5757 12.7262 9.19999 11.0292 9.19999V10.8ZM20.6837 12.2727C20.6837 13.0861 20.0243 13.7454 19.211 13.7454V15.3454C20.908 15.3454 22.2837 13.9697 22.2837 12.2727H20.6837ZM19.211 13.7454C18.3976 13.7454 17.7383 13.0861 17.7383 12.2727H16.1383C16.1383 13.9697 17.514 15.3454 19.211 15.3454V13.7454ZM17.7383 12.2727C17.7383 11.4593 18.3976 10.8 19.211 10.8V9.19999C17.514 9.19999 16.1383 10.5757 16.1383 12.2727H17.7383ZM19.211 10.8C20.0243 10.8 20.6837 11.4593 20.6837 12.2727H22.2837C22.2837 10.5757 20.908 9.19999 19.211 9.19999V10.8ZM16.1383 17.2727C16.1383 17.835 15.6824 18.2909 15.1201 18.2909V19.8909C16.5661 19.8909 17.7383 18.7187 17.7383 17.2727H16.1383ZM15.1201 18.2909C14.5578 18.2909 14.1019 17.835 14.1019 17.2727H12.5019C12.5019 18.7187 13.6741 19.8909 15.1201 19.8909V18.2909ZM13.3019 25.3454H16.9383V23.7454H13.3019V25.3454ZM18.6474 23.6364V21.8182H17.0474V23.6364H18.6474ZM13.1928 23.6364V21.8182H11.5928V23.6364H13.1928ZM13.1928 21.8182C13.1928 20.7538 14.0557 19.8909 15.1201 19.8909V18.2909C13.172 18.2909 11.5928 19.8701 11.5928 21.8182H13.1928ZM18.6474 21.8182C18.6474 19.8701 17.0681 18.2909 15.1201 18.2909V19.8909C16.1845 19.8909 17.0474 20.7538 17.0474 21.8182H18.6474ZM16.9383 25.3454C17.8822 25.3454 18.6474 24.5803 18.6474 23.6364H17.0474C17.0474 23.6966 16.9985 23.7454 16.9383 23.7454V25.3454ZM13.3019 23.7454C13.2416 23.7454 13.1928 23.6966 13.1928 23.6364H11.5928C11.5928 24.5803 12.358 25.3454 13.3019 25.3454V23.7454ZM24.5577 23.6708C24.5783 23.4853 24.6403 22.8846 24.6656 22.1635C24.6904 21.4558 24.6824 20.5733 24.5418 19.8478L22.971 20.1522C23.0759 20.6935 23.0904 21.4278 23.0666 22.1075C23.0432 22.7737 22.9856 23.3309 22.9675 23.4943L24.5577 23.6708ZM24.5418 19.8478C24.2945 18.5712 23.8162 17.1299 23.2067 15.9881C22.903 15.4191 22.5476 14.8883 22.1439 14.4887C21.7504 14.0992 21.2187 13.7454 20.5746 13.7454V15.3454C20.6124 15.3454 20.7607 15.3708 21.0183 15.6259C21.2657 15.8707 21.5326 16.2496 21.7952 16.7416C22.3185 17.7218 22.7493 19.0077 22.971 20.1522L24.5418 19.8478ZM22.8474 25.3454C23.7571 25.3454 24.5003 24.6351 24.5534 23.7382L22.9562 23.6436C22.9529 23.7001 22.9051 23.7454 22.8474 23.7454V25.3454ZM16.6649 16.2659C16.9978 15.9028 17.2204 15.6879 17.4511 15.5496C17.6544 15.4278 17.8997 15.3454 18.3019 15.3454V13.7454C17.6428 13.7454 17.1071 13.8904 16.6286 14.1772C16.1775 14.4476 15.8174 14.8227 15.4855 15.1847L16.6649 16.2659ZM15.1201 16.2545C15.3175 16.2545 15.4996 16.3099 15.6544 16.4057L16.4961 15.045C16.0957 14.7973 15.6233 14.6545 15.1201 14.6545V16.2545ZM15.6544 16.4057C15.9465 16.5864 16.1383 16.9075 16.1383 17.2727H17.7383C17.7383 16.3303 17.2398 15.505 16.4961 15.045L15.6544 16.4057ZM14.1019 17.2727C14.1019 16.9764 14.2274 16.7106 14.4306 16.5235L13.3466 15.3466C12.8284 15.824 12.5019 16.5108 12.5019 17.2727H14.1019ZM14.4306 16.5235C14.6126 16.3558 14.8536 16.2545 15.1201 16.2545V14.6545C14.4364 14.6545 13.8124 14.9176 13.3466 15.3466L14.4306 16.5235ZM9.8928 15.3454H11.0292V13.7454H9.8928V15.3454ZM7.27269 23.4943C7.25455 23.3309 7.19693 22.7737 7.17358 22.1075C7.14977 21.4278 7.16422 20.6935 7.2691 20.1522L5.69832 19.8478C5.55775 20.5733 5.54977 21.4558 5.57456 22.1635C5.59983 22.8846 5.66186 23.4853 5.68244 23.6708L7.27269 23.4943ZM7.2691 20.1522C7.49087 19.0077 7.92168 17.7218 8.44493 16.7416C8.70753 16.2496 8.97443 15.8707 9.22182 15.6259C9.47947 15.3708 9.62779 15.3454 9.66553 15.3454V13.7454C9.02146 13.7454 8.48978 14.0992 8.0963 14.4887C7.69256 14.8883 7.33719 15.4191 7.03343 15.9881C6.42397 17.1299 5.94568 18.5712 5.69832 19.8478L7.2691 20.1522ZM7.3928 23.7454C7.33503 23.7454 7.28727 23.7001 7.28393 23.6436L5.68672 23.7382C5.73983 24.6351 6.48307 25.3454 7.3928 25.3454V23.7454ZM14.7547 15.1847C14.4228 14.8227 14.0627 14.4476 13.6116 14.1772C13.133 13.8904 12.5974 13.7454 11.9383 13.7454V15.3454C12.3405 15.3454 12.5858 15.4278 12.789 15.5496C13.0198 15.6879 13.2423 15.9028 13.5752 16.2659L14.7547 15.1847ZM15.1201 14.6545C14.6168 14.6545 14.1445 14.7973 13.7441 15.045L14.5858 16.4057C14.7406 16.3099 14.9226 16.2545 15.1201 16.2545V14.6545ZM13.7441 15.045C13.0003 15.505 12.5019 16.3303 12.5019 17.2727H14.1019C14.1019 16.9075 14.2936 16.5864 14.5858 16.4057L13.7441 15.045ZM14.211 23.7454H13.3019V25.3454H14.211V23.7454ZM5.68244 23.6708C5.6835 23.6803 5.68363 23.6859 5.68672 23.7382L7.28393 23.6436C7.28273 23.6234 7.27964 23.557 7.27269 23.4943L5.68244 23.6708ZM22.9675 23.4943C22.9605 23.557 22.9574 23.6234 22.9562 23.6436L24.5534 23.7382C24.5565 23.6859 24.5567 23.6803 24.5577 23.6708L22.9675 23.4943ZM18.3019 15.3454H20.5746V13.7454H18.3019V15.3454ZM16.0292 25.3454H22.8474V23.7454H16.0292V25.3454ZM6.93826 25.3454H13.7564V23.7454H6.93826V25.3454ZM11.9383 13.7454H9.66553V15.3454H11.9383V13.7454ZM13.3019 23.7454H7.3928V25.3454H13.3019V23.7454ZM13.3479 3.8426C12.584 4.08104 12.0105 4.61688 11.7479 5.3092C11.4862 5.99935 11.5567 6.78191 11.9505 7.47772L13.343 6.68967C13.165 6.37514 13.1637 6.08803 13.2439 5.87657C13.3233 5.66728 13.5054 5.46958 13.8246 5.36994L13.3479 3.8426ZM14.3057 9.63573C14.4097 9.69629 14.5382 9.76931 14.6779 9.81853C14.8507 9.87948 14.9985 9.8909 15.1238 9.8909V8.2909C15.11 8.2909 15.1205 8.2902 15.1421 8.29324C15.1533 8.29483 15.1657 8.29713 15.1785 8.30028C15.1912 8.3034 15.2018 8.30673 15.2098 8.30956C15.2247 8.3148 15.2268 8.31704 15.2084 8.30759C15.1996 8.30307 15.1874 8.2966 15.1708 8.28734C15.1542 8.2781 15.1346 8.26689 15.1108 8.25305L14.3057 9.63573ZM15.1238 9.8909C15.2559 9.8909 15.4126 9.87869 15.6002 9.80601C15.7398 9.75192 15.8782 9.66982 15.9993 9.59729L15.1774 8.22455C15.1134 8.26287 15.0723 8.28668 15.043 8.30255C15.0137 8.31848 15.0105 8.31858 15.0222 8.31406C15.0291 8.31136 15.0403 8.30743 15.0548 8.3035C15.0695 8.2995 15.0844 8.29638 15.0987 8.29419C15.126 8.29 15.1409 8.2909 15.1238 8.2909V9.8909ZM15.9992 9.59733C16.9649 9.01926 17.8247 8.26768 18.2723 7.50923L16.8943 6.69616C16.6349 7.13572 16.0226 7.7186 15.1774 8.22451L15.9992 9.59733ZM18.2723 7.50921C18.9742 6.31943 18.6801 4.79 17.4499 4.08247L16.6522 5.46945C17.0249 5.6838 17.1954 6.18567 16.8942 6.69618L18.2723 7.50921ZM17.4499 4.08247C17.0015 3.82462 16.4813 3.75685 16.0283 3.78498C15.5719 3.81333 15.0978 3.94386 14.7095 4.17706L15.5333 5.54868C15.6695 5.46692 15.8869 5.39685 16.1275 5.3819C16.3717 5.36674 16.554 5.41299 16.6522 5.46945L17.4499 4.08247ZM14.3218 4.88882L14.3221 4.89684L15.9213 4.84492L15.921 4.83691L14.3218 4.88882ZM15.1217 4.87088C15.4726 4.15193 15.4725 4.1519 15.4724 4.15186C15.4724 4.15185 15.4723 4.15181 15.4722 4.15178C15.4721 4.15172 15.472 4.15166 15.4719 4.15159C15.4716 4.15146 15.4713 4.15131 15.4709 4.15114C15.4702 4.1508 15.4694 4.15038 15.4684 4.1499C15.4663 4.14892 15.4637 4.14765 15.4605 4.14611C15.4541 4.14304 15.4453 4.13887 15.4345 4.13375C15.4128 4.12353 15.3824 4.10946 15.3453 4.09279C15.2716 4.05967 15.1685 4.01508 15.0512 3.96952C14.8507 3.8916 14.4907 3.76233 14.1633 3.74981L14.1021 5.34864C14.1002 5.34856 14.1372 5.35162 14.2216 5.37537C14.2983 5.39694 14.385 5.4272 14.4716 5.46084C14.5569 5.49399 14.6339 5.52724 14.6897 5.5523C14.7173 5.56471 14.7391 5.57481 14.7533 5.58149C14.7603 5.58482 14.7655 5.58728 14.7685 5.58872C14.77 5.58944 14.771 5.5899 14.7714 5.5901C14.7716 5.59019 14.7716 5.59022 14.7715 5.59017C14.7715 5.59015 14.7714 5.59011 14.7713 5.59005C14.7712 5.59002 14.7711 5.58999 14.7711 5.58995C14.771 5.58993 14.771 5.5899 14.7709 5.58989C14.7709 5.58986 14.7708 5.58983 15.1217 4.87088ZM14.1633 3.74981C14.0233 3.74445 13.8844 3.74153 13.7443 3.75616C13.5907 3.7722 13.4658 3.80582 13.3479 3.84262L13.8247 5.36993C13.8946 5.34809 13.9061 5.34796 13.9104 5.34751C13.9282 5.34566 13.9686 5.34353 14.1021 5.34864L14.1633 3.74981ZM14.7083 8.94439C15.1049 8.24961 15.105 8.24967 15.1051 8.24973C15.1051 8.24975 15.1052 8.24981 15.1053 8.24984C15.1054 8.2499 15.1055 8.24995 15.1055 8.24999C15.1057 8.25007 15.1057 8.2501 15.1057 8.25008C15.1056 8.25003 15.1052 8.24979 15.1044 8.24934C15.1029 8.24846 15.1 8.24679 15.0958 8.24435C15.0875 8.23947 15.0741 8.23153 15.0561 8.22071C15.0202 8.19904 14.9663 8.16594 14.8991 8.12275C14.7642 8.036 14.5784 7.91051 14.3774 7.75703C13.9546 7.43432 13.5465 7.04929 13.343 6.68967L11.9505 7.47772C12.3188 8.12843 12.9414 8.67375 13.4065 9.02881C13.6494 9.21421 13.8718 9.36445 14.034 9.46872C14.1154 9.52104 14.1824 9.56227 14.2302 9.59105C14.2541 9.60545 14.2732 9.61677 14.287 9.62484C14.2939 9.62888 14.2994 9.6321 14.3036 9.6345C14.3057 9.63569 14.3074 9.63668 14.3087 9.63746C14.3094 9.63785 14.31 9.63819 14.3105 9.63848C14.3107 9.63862 14.311 9.63875 14.3112 9.63886C14.3113 9.63892 14.3114 9.639 14.3115 9.63903C14.3116 9.6391 14.3117 9.63917 14.7083 8.94439Z" fill="black"/>
</svg>
