<svg width="30" height="30" viewBox="0 0 30 30" fill="none" xmlns="http://www.w3.org/2000/svg">
<path fill-rule="evenodd" clip-rule="evenodd" d="M12.7826 6.31001C13.1011 6.87299 13.254 7.53561 13.2734 8.14363C13.2853 8.51861 13.0451 8.82031 12.7437 8.93307C9.36191 10.198 7.70227 11.995 6.92643 13.6604C6.4679 14.6447 6.30528 15.6106 6.2973 16.4368C6.67237 16.2024 7.09258 16.0439 7.47877 15.9353C8.47582 15.6551 9.59441 15.6031 10.2933 15.6031C11.8098 15.6031 12.8617 15.8974 13.9201 16.2476C14.0678 16.2965 14.2151 16.3462 14.3636 16.3964C14.9713 16.6016 15.5984 16.8133 16.3523 16.9992C15.094 13.5558 16.1247 10.7994 17.4223 9.39718C17.3596 9.37531 17.2928 9.35254 17.2239 9.32908C17.0369 9.26542 16.8349 9.19661 16.6606 9.12651C16.399 9.02133 16.2308 8.79549 16.1736 8.55686C15.9123 7.4674 15.2762 6.88877 14.5146 6.5869C13.9785 6.37439 13.3705 6.29768 12.7826 6.31001ZM18.6715 10.004C17.5888 10.9048 16.1508 13.5667 17.882 17.3009C20.2004 17.6539 21.6739 17.4405 22.5542 17.0955C23.4763 16.7341 23.6744 16.2722 23.6928 16.1833C23.7906 14.9084 23.1561 13.7105 22.0883 12.5973C21.1164 11.5842 19.8509 10.7118 18.6715 10.004ZM5.19911 18.2344C4.90652 17.0315 4.82372 15.0975 5.75254 13.1037C6.6658 11.1433 8.5227 9.19882 11.946 7.83957C11.867 7.30646 11.6496 6.83743 11.3513 6.56957C11.0986 6.34271 11.033 6.0183 11.0815 5.75908C11.1316 5.4911 11.3393 5.15834 11.7513 5.09243C12.7004 4.94057 13.9066 4.93973 14.9889 5.36874C16.0424 5.78631 16.9561 6.60657 17.3665 7.99552C17.4361 8.02011 17.5068 8.04401 17.5823 8.06955C17.6885 8.10547 17.8042 8.14462 17.94 8.19349C18.2498 8.30497 18.596 8.44589 18.9672 8.66206C20.2734 9.42259 21.8236 10.4396 23.0203 11.687C24.213 12.9304 25.1344 14.4888 24.9838 16.3119L24.9827 16.3253L24.9811 16.3387C24.8897 17.076 24.2051 17.8525 23.0239 18.3155C21.814 18.7896 19.9891 18.988 17.3393 18.5389C15.8912 18.2934 14.8502 17.9414 13.9435 17.6348C13.7979 17.5856 13.6557 17.5375 13.5159 17.4912C12.5175 17.1608 11.6141 16.9119 10.2933 16.9119C9.63334 16.9119 8.65385 16.9637 7.82685 17.1961C7.01566 17.4241 6.60744 17.7464 6.49691 18.1095C6.51172 18.1813 6.52888 18.2573 6.54846 18.337C6.69557 18.8762 6.94838 19.2138 7.24008 19.4342C7.60448 19.7095 8.10213 19.8562 8.71521 19.8861C9.95971 19.9467 11.4369 19.5178 12.5337 19.1405C13.2497 18.8941 14.0775 19.4238 14.0148 20.2746C13.9026 21.7967 13.4461 23.0795 12.7708 23.926C12.0945 24.7736 11.0944 25.2737 10.0476 24.8415L10.0387 24.8378L10.0299 24.8339C8.41442 24.1094 7.27822 22.8378 6.51735 21.5811C5.88299 20.5335 5.49065 19.4659 5.29188 18.6615C5.25532 18.5248 5.22434 18.3824 5.19911 18.2344ZM7.72695 21.0644C8.39034 22.1081 9.31376 23.0775 10.5467 23.6334C10.8698 23.7627 11.2984 23.6844 11.7604 23.1053C12.1929 22.5632 12.5643 21.6604 12.6949 20.4664C11.6001 20.8309 10.0534 21.2616 8.65261 21.1933C8.34308 21.1782 8.03116 21.1384 7.72695 21.0644Z" fill="black"/>
<path d="M21.5001 13.599C21.5001 13.9378 21.2279 14.2125 20.8921 14.2125C20.5563 14.2125 20.2841 13.9378 20.2841 13.599C20.2841 13.2602 20.5563 12.9855 20.8921 12.9855C21.2279 12.9855 21.5001 13.2602 21.5001 13.599Z" fill="black"/>
</svg>
