<svg width="30" height="30" viewBox="0 0 30 30" fill="none" xmlns="http://www.w3.org/2000/svg">
<path fill-rule="evenodd" clip-rule="evenodd" d="M13.1077 3.70088C12.3852 3.88211 11.7321 4.42762 11.404 5.12391C10.9795 6.02447 11.0848 7.14662 11.6648 7.90427C11.8057 8.08839 11.8023 8.16488 11.6484 8.26531C11.5975 8.29852 11.539 8.27486 11.4093 8.16857C10.9962 7.82999 10.4174 7.62923 9.85475 7.62923C8.66184 7.62923 7.61747 8.48299 7.34431 9.68151C7.24758 10.106 7.24947 16.4125 7.34646 16.7978C7.51743 17.4771 8.06928 18.0437 8.72982 18.2181C8.95002 18.2762 9.17876 18.286 9.97435 18.2716C10.5104 18.262 10.9925 18.2383 11.0456 18.2191L11.1422 18.1842V18.9239V19.6636L9.9756 21.5152C9.33394 22.5336 9.06941 22.9205 8.70021 23.6332C8.47615 24.0658 8.58418 24.6699 8.62434 24.8875C8.70021 25.2985 9.08347 25.7454 9.4349 25.9454C10.1659 26.3615 11.2624 26.3235 11.6279 25.9454C12.1843 25.3697 12.4415 24.9763 12.4415 24.9763C12.4531 24.9458 12.9802 24.1016 13.6129 23.1005C14.6672 21.432 14.941 20.9485 14.9701 20.703C14.9759 20.6542 14.9918 21.5632 15.0054 22.7231L15.0056 22.7385C15.0123 23.3081 15.0157 23.593 15.0225 23.8777C15.0293 24.1625 15.0396 24.4471 15.0602 25.0165L15.0607 25.0318C15.0607 25.0318 15.0607 26.3615 16.292 26.3615C16.292 26.3615 17.1408 26.3621 17.558 26.3615C18.8558 26.3596 18.8557 24.9763 18.8558 25.0096L18.8551 24.8285C18.8519 24.1042 18.8504 23.7422 18.8504 23.3801C18.8504 23.0181 18.8519 22.656 18.8551 21.9318L18.8558 21.7506C18.8677 19.0162 18.8613 18.6415 18.7997 18.4222C18.6041 17.7259 18.4582 17.5861 16.5714 16.2857L15.0045 15.2059V14.3028C15.0045 13.806 15.0138 13.3996 15.025 13.3996C15.0363 13.3996 15.2785 13.5589 15.5633 13.7536C15.5811 13.7658 15.5985 13.7777 15.6155 13.7893C15.8526 13.9516 16.0125 14.061 16.1866 14.1349C16.5471 14.2878 16.9683 14.2877 18.2621 14.2876C18.3068 14.2875 18.3525 14.2875 18.3993 14.2875H20.1543V19.6597V25.0318V25.7176C20.1543 26.0739 20.4679 26.3628 20.8242 26.3632V26.3632C21.1807 26.3637 21.4445 26.0742 21.4436 25.7177L21.4418 25.0318L21.4435 19.6042L21.4453 14.1765L21.6688 14.0682C21.7918 14.0085 21.9942 13.8604 22.1186 13.739C23.0672 12.8129 22.881 11.237 21.7415 10.5462C21.3484 10.3079 21.1923 10.2918 19.2867 10.2918H17.5359L16.2949 9.43559L15.0541 8.57947L15.2007 8.47549C15.4888 8.2713 15.8165 7.88198 15.9889 7.53932C16.8948 5.73784 15.6499 3.61914 13.6956 3.63646C13.5068 3.63815 13.2422 3.66714 13.1077 3.70088ZM14.9742 6.29596C14.9742 5.77074 14.7005 5.32255 14.2538 5.1165C13.3854 4.7159 12.4599 5.32446 12.4599 6.29596C12.4599 7.03487 13.0029 7.59655 13.7171 7.59655C14.4313 7.59655 14.9742 7.03487 14.9742 6.29596ZM11.0086 9.75871C10.8714 9.45268 10.6684 9.24006 10.3914 9.11228C9.72051 8.80274 9.00718 9.07552 8.70085 9.75871C8.59859 9.98678 8.59013 10.0574 8.57456 10.8134L8.5579 11.6237H9.85475H11.1516L11.1349 10.8134C11.1194 10.0574 11.1109 9.98678 11.0086 9.75871ZM17.076 11.6015L15.1927 10.3054C13.8863 9.40629 13.2634 9.00249 13.1592 8.98717C12.8189 8.93709 12.5017 9.18776 12.4519 9.54623C12.4373 9.65105 12.4311 11.2587 12.4382 13.1189C12.4509 16.4431 12.4526 16.5031 12.5387 16.6263C12.587 16.6952 13.4046 17.291 14.3557 17.9503C15.3068 18.6096 16.1267 19.2086 16.1777 19.2813C16.2697 19.4123 16.2707 19.4367 16.292 21.9974C16.3129 24.5202 16.3155 24.5843 16.4019 24.7039C16.5605 24.9236 16.7106 25.0096 16.9357 25.0096C17.1608 25.0096 17.311 24.9236 17.4695 24.7039C17.5568 24.5829 17.558 24.5412 17.558 21.6575C17.558 18.7825 17.5565 18.7317 17.4702 18.6084C17.4219 18.5395 16.5927 17.9337 15.6274 17.2622C14.2177 16.2814 13.8572 16.0108 13.7948 15.8866C13.7233 15.7442 13.7171 15.5789 13.7171 13.8213V11.9107L13.8218 11.7513C13.9613 11.5389 14.1894 11.4296 14.4336 11.458C14.5895 11.4762 14.8091 11.6083 15.6783 12.2068L16.7336 12.9334H18.87C20.9607 12.9334 21.0088 12.9315 21.1248 12.8419C21.3372 12.6779 21.4203 12.5226 21.4203 12.2896C21.4203 12.0568 21.3373 11.9015 21.1249 11.7374C21.0104 11.6489 20.9417 11.6452 19.0412 11.6237L17.076 11.6015ZM11.0322 16.6236C11.1176 16.5053 11.1212 16.4393 11.1329 14.7283L11.145 12.9556H9.85475H8.56447L8.57662 14.7283C8.58833 16.4393 8.59185 16.5053 8.67725 16.6236C8.89316 16.9226 8.9186 16.9292 9.85475 16.9292C10.7909 16.9292 10.8163 16.9226 11.0322 16.6236ZM13.7171 19.1408L13.0951 18.7121C12.753 18.4763 12.4644 18.2833 12.4538 18.2833C12.4432 18.2833 12.4286 18.6982 12.4213 19.2052L12.4082 20.1272L11.1707 22.0936C10.4901 23.1751 9.91556 24.1237 9.89397 24.2015C9.72287 24.8188 10.511 25.2876 10.9365 24.8216C11.1137 24.6275 13.6333 20.6062 13.6774 20.4471C13.6992 20.3684 13.7171 20.0423 13.7171 19.7224V19.1408Z" fill="black"/>
</svg>
