<svg width="30" height="30" viewBox="0 0 30 30" fill="none" xmlns="http://www.w3.org/2000/svg">
<path fill-rule="evenodd" clip-rule="evenodd" d="M22.8925 4.57158C22.1674 4.65702 21.4344 4.86327 20.8064 5.15845C20.1134 5.48426 19.7291 5.75162 19.1139 6.33592C18.1617 7.24028 17.858 7.77225 17.3031 9.50694C16.9921 10.4793 16.968 10.5342 16.8386 10.5667C16.7635 10.5856 16.6317 10.6566 16.5458 10.7245C16.3093 10.9113 15.847 11.1151 15.472 11.1979C15.2183 11.2539 14.9725 11.2665 14.4652 11.2495C13.6824 11.2234 12.975 11.0699 12.1533 10.7479C11.8576 10.6321 11.5726 10.5519 11.4501 10.55C11.213 10.5462 10.9725 10.67 10.8354 10.8662L10.744 10.997L10.0814 10.9877C9.55416 10.9802 9.33743 10.9977 9.02097 11.0733C8.50837 11.1957 7.81186 11.5199 7.41729 11.8198L7.1063 12.0562H6.61732C5.99513 12.0562 5.49312 12.1721 4.86945 12.4599C4.46026 12.6488 4.33035 12.7409 3.8977 13.149C3.47046 13.552 3.36446 13.6842 3.16424 14.0636C2.75188 14.8449 2.76187 14.7661 2.74352 17.3799L2.72726 19.6926L2.84127 19.8499C3.06187 20.1543 3.17637 20.1994 3.77837 20.2188L4.32254 20.2362V22.5671C4.32254 24.8111 4.32627 24.9049 4.42263 25.0823C4.48706 25.2009 4.59267 25.3001 4.719 25.3606C4.9046 25.4494 5.00946 25.4545 6.65893 25.4545C8.60353 25.4545 8.63212 25.4506 8.87768 25.1476C9.01814 24.9744 9.02087 24.9597 9.01585 24.4074C9.00964 23.7181 8.92676 23.3854 8.61557 22.801L8.38338 22.365L8.59737 21.9551L8.81136 21.5452L9.32908 21.2994C10.2669 20.854 10.8065 20.4578 11.2876 19.8613C11.4641 19.6423 11.8927 18.9344 11.9059 18.8398C11.9066 18.8349 12.2981 18.9228 12.776 19.0352C14.1817 19.3659 15.1251 19.4786 16.4912 19.4789L17.1003 19.479V22.192C17.1003 24.8688 17.1017 24.9073 17.2056 25.0809C17.2635 25.1776 17.3966 25.302 17.5014 25.3573C17.6882 25.4559 17.7276 25.4576 19.5056 25.4445C21.2482 25.4317 21.3246 25.4274 21.4565 25.3349C21.7678 25.1165 21.799 25.0319 21.7958 24.4122C21.792 23.6381 21.5983 23.0079 21.1959 22.4593L21.0705 22.2885L21.3762 20.8487C21.5443 20.0568 21.6934 19.3632 21.7075 19.3073C21.7216 19.2514 21.8203 19.1515 21.9269 19.0853C22.2343 18.8943 22.8096 18.363 23.0413 18.0563C23.5544 17.377 23.8512 16.5897 23.8953 15.7909C23.9167 15.4014 23.8854 15.0082 23.7426 13.8769C23.6437 13.0937 23.5486 12.3585 23.5311 12.2429L23.4994 12.0328L23.8605 12.3955C24.1409 12.6771 24.3015 12.7942 24.5792 12.9196C25.5632 13.364 26.6923 13.1818 27.4682 12.4533C27.9904 11.963 28.2177 11.3908 28.1772 10.6681L28.1553 10.2753L27.3759 8.80663L26.5966 7.33799L26.5958 6.20744C26.595 5.12362 26.5904 5.06938 26.4839 4.89501C26.2719 4.54782 26.2229 4.53909 24.534 4.54703C23.7132 4.55086 22.9746 4.56192 22.8925 4.57158ZM25.1035 6.81588L25.1019 7.69121L25.9074 9.21783L26.7129 10.7444L26.6502 11.0078C26.5369 11.483 26.1162 11.7616 25.5754 11.7195C25.238 11.6932 25.0526 11.5631 24.6562 11.0741C24.4906 10.8698 24.2833 10.6678 24.1956 10.6251C24.0996 10.5784 23.8543 10.5364 23.5795 10.5197C22.9381 10.4806 22.7085 10.3081 22.6203 9.79904C22.5553 9.42426 22.4382 9.25256 22.1579 9.12161C21.7652 8.93805 21.3513 9.08478 21.1687 9.47235C21.0769 9.66735 21.0727 9.71935 21.1231 10.0377C21.1909 10.4658 21.4014 10.8949 21.6929 11.1993L21.9103 11.4264L22.1652 13.5036C22.4326 15.6829 22.4392 15.876 22.2641 16.3978C22.0665 16.9868 21.4861 17.6842 20.9459 17.9819C20.5654 18.1916 20.3949 18.3414 20.3359 18.518C20.1991 18.9279 19.4814 22.4949 19.5085 22.6305C19.5249 22.713 19.6453 22.9055 19.7759 23.0583C20.004 23.3252 20.1835 23.6525 20.2523 23.9267L20.2848 24.0563L19.4507 24.0435L18.6167 24.0307L18.5919 20.4977C18.5673 17.0165 18.5655 16.9629 18.464 16.833C18.2394 16.5456 17.829 16.4621 17.4982 16.6367C17.1893 16.7998 17.1003 17.0061 17.1003 17.5596V18.0318H16.2551H15.4098V16.8524V15.6729L15.8571 15.5726C16.6314 15.3989 17.5342 14.9177 17.7206 14.5792C17.7794 14.4725 17.7963 14.2704 17.7963 13.6752V12.9087L18.4396 10.9007C18.7933 9.7962 19.151 8.75126 19.2344 8.57853C19.4475 8.13727 19.7384 7.74704 20.1512 7.34883C20.988 6.54142 22.0102 6.082 23.2157 5.97146C23.3114 5.96268 23.7756 5.95213 24.2474 5.94802L25.105 5.94055L25.1035 6.81588ZM13.4707 12.6033C13.7594 12.6572 14.1378 12.6821 14.6641 12.6817C15.3949 12.6811 15.5813 12.6584 16.1929 12.4953L16.3048 12.4655V13.1884V13.9114L15.999 14.0359C15.8309 14.1043 15.4789 14.1944 15.2168 14.236C14.8103 14.3004 14.6417 14.3037 14.0683 14.2586C13.3955 14.2056 12.7642 14.0875 12.4143 13.9493L12.2278 13.8756V13.088V12.3005L12.6379 12.4124C12.8634 12.474 13.2381 12.5599 13.4707 12.6033ZM10.5995 12.4531C10.678 12.4831 10.6866 12.5717 10.6869 13.3567C10.687 13.8438 10.7112 14.3092 10.7417 14.4137C10.8966 14.943 12.0113 15.458 13.3551 15.6212C13.6385 15.6556 13.8816 15.6943 13.8953 15.7071C13.909 15.7199 13.9142 16.2031 13.9068 16.7808L13.8934 17.8311L13.0659 17.6397L12.2385 17.4482L12.2153 17.223C12.1737 16.8208 11.8764 16.5612 11.4572 16.5612C10.9636 16.5612 10.7527 16.8138 10.685 17.486C10.6079 18.2503 10.342 18.7836 9.77083 19.3186C9.46268 19.6072 9.3177 19.6967 8.60955 20.0352C8.04584 20.3046 7.76438 20.4666 7.68175 20.569C7.48332 20.8151 6.70905 22.327 6.70905 22.4683C6.70905 22.6662 6.78189 22.8109 7.01919 23.0845C7.22587 23.3227 7.40715 23.6578 7.47427 23.9256L7.50644 24.054H6.66027H5.81411V22.3144V20.5747L6.48666 19.9451C6.85656 19.5989 7.22016 19.2334 7.29459 19.1329L7.42997 18.9502L7.45483 16.5653L7.47969 14.1803L7.61582 13.8818C7.77984 13.5223 8.06886 13.1526 8.36265 12.9266C8.61765 12.7303 9.14075 12.4915 9.44895 12.4305C9.68502 12.3839 10.4578 12.399 10.5995 12.4531ZM6.09084 13.6551C5.94368 14.1211 5.91698 14.5244 5.91529 16.3062C5.91355 18.126 5.91196 18.1549 5.80168 18.3601C5.62339 18.6918 5.41059 18.777 4.75758 18.778L4.22311 18.7787L4.22395 17.1798C4.2249 15.4357 4.25517 15.1645 4.49909 14.7125C4.70001 14.3402 5.1705 13.9054 5.58103 13.7126C5.99608 13.5176 6.13937 13.5014 6.09084 13.6551Z" fill="black"/>
</svg>
