<svg width="30" height="30" viewBox="0 0 30 30" fill="none" xmlns="http://www.w3.org/2000/svg">
<path fill-rule="evenodd" clip-rule="evenodd" d="M22.375 23.7273C23.0999 23.7273 23.6875 23.1575 23.6875 22.4546C23.6875 21.7517 23.0999 21.1818 22.375 21.1818C21.6501 21.1818 21.0625 21.7517 21.0625 22.4546C21.0625 23.1575 21.6501 23.7273 22.375 23.7273ZM22.375 25C23.8247 25 25 23.8604 25 22.4546C25 21.0488 23.8247 19.9091 22.375 19.9091C20.9253 19.9091 19.75 21.0488 19.75 22.4546C19.75 23.8604 20.9253 25 22.375 25Z" fill="black"/>
<path fill-rule="evenodd" clip-rule="evenodd" d="M21.6935 4.4617C21.7931 4.79963 21.5913 5.15185 21.2428 5.2484L18.9995 5.8699C18.8855 5.90148 18.8182 6.01536 18.8478 6.12669L22.5731 20.1749L21.3019 20.4918L20.7897 18.5602L17.4913 23.2867C17.2064 23.6949 16.7313 23.9394 16.2231 23.9394H8.75735C9.02743 23.5753 9.2008 23.1393 9.24102 22.6667H16.2231C16.2957 22.6667 16.3636 22.6318 16.4043 22.5734L17.3766 21.1801H8.89777C8.44364 20.4202 7.59587 19.9091 6.625 19.9091V19.9074H18.2648L20.3533 16.9145L17.5766 6.44365C17.37 5.66433 17.8411 4.86721 18.639 4.64615L20.8822 4.02465C21.2307 3.9281 21.5939 4.12377 21.6935 4.4617ZM6.625 19.9091V21.1801H8.89777C9.12177 21.5549 9.25 21.9902 9.25 22.4546C9.25 22.526 9.24697 22.5967 9.24102 22.6667H8.375V23.9394H8.75735C8.28084 24.5817 7.50329 25 6.625 25C5.17525 25 4 23.8604 4 22.4546C4 21.0488 5.17525 19.9091 6.625 19.9091ZM6.625 23.7273C7.34987 23.7273 7.9375 23.1575 7.9375 22.4546C7.9375 21.7517 7.34987 21.1818 6.625 21.1818C5.90013 21.1818 5.3125 21.7517 5.3125 22.4546C5.3125 23.1575 5.90013 23.7273 6.625 23.7273Z" fill="black"/>
<path d="M6.625 19.9091V21.1801H8.89777C8.44364 20.4202 7.59587 19.9091 6.625 19.9091Z" fill="black"/>
<path d="M8.375 22.6667V23.9394H8.75735C9.02743 23.5753 9.2008 23.1393 9.24102 22.6667H8.375Z" fill="black"/>
</svg>
