<svg width="30" height="30" viewBox="0 0 30 30" fill="none" xmlns="http://www.w3.org/2000/svg">
<path fill-rule="evenodd" clip-rule="evenodd" d="M18.8903 6.45098C18.6179 6.5848 18.5134 6.76113 18.5134 7.08664C18.5134 7.61918 18.7846 7.80598 19.5589 7.80665C19.8327 7.80684 20.208 7.8208 20.3928 7.83764L20.7289 7.86821V8.55482V9.24143L20.5422 9.26955C20.4395 9.285 20.1621 9.3563 19.9258 9.42798L19.4961 9.55835L19.1319 9.22953C17.0633 7.36205 13.9629 7.33144 11.8944 9.15804C11.709 9.32185 11.4521 9.58968 11.3237 9.7532L11.0901 10.0505L10.4205 9.66017L9.7509 9.26979L6.51475 9.25731C3.50847 9.2457 3.26646 9.25084 3.10789 9.32929C2.79503 9.48407 2.7307 9.62461 2.73279 10.1493C2.73842 11.5951 3.83483 12.9559 5.36966 13.4219C5.66195 13.5107 5.89889 13.5341 6.83837 13.5674C7.45747 13.5893 8.11615 13.6386 8.31087 13.6775C9.79217 13.974 11.102 14.7654 11.9823 15.8959C12.6964 16.8129 13.0587 17.7464 13.186 18.998L13.219 19.3219H12.4507H11.6824L11.6519 18.95C11.503 17.1373 10.1478 15.6085 8.25595 15.119C7.7663 14.9923 6.60746 14.9923 6.1178 15.119C4.47374 15.5444 3.26726 16.7071 2.8259 18.2916C2.69441 18.7635 2.69441 19.8803 2.8259 20.3522C3.19417 21.6743 4.16277 22.7793 5.39455 23.2825C6.48613 23.7285 7.75485 23.7543 8.80565 23.352C9.9027 22.932 10.8862 22.0253 11.2949 21.0571L11.4096 20.7853L15.0948 20.7613C18.7199 20.7377 18.7823 20.7357 18.9205 20.6382C19.1415 20.4825 19.2229 20.26 19.2791 19.6577C19.3691 18.6943 19.6056 18.0223 20.1145 17.2827C20.3663 16.9168 20.5982 16.6349 20.6474 16.6349C20.6599 16.6349 20.8747 16.8819 21.1248 17.1838L21.5795 17.7327L21.4089 17.9635C21.175 18.2802 21.0089 18.6109 20.8706 19.0352C20.702 19.5529 20.7015 20.527 20.8697 21.0492C21.2499 22.2299 22.1923 23.1381 23.4174 23.5045C23.9573 23.666 24.9685 23.666 25.5084 23.5045C26.7336 23.1381 27.6759 22.2299 28.0561 21.0492C28.2237 20.5288 28.2237 19.5543 28.0561 19.034C27.6759 17.8533 26.7336 16.9451 25.5084 16.5787C25.1912 16.4838 25.0302 16.4672 24.438 16.4683C23.7229 16.4697 23.6212 16.4902 22.82 16.7942C22.7677 16.814 22.608 16.6549 22.2875 16.2635C21.7627 15.6225 21.7562 15.6846 22.3748 15.4309C22.9153 15.2093 23.415 15.1031 24.2638 15.0296C25.2908 14.9406 25.6109 14.8209 26.0775 14.3515C26.6451 13.7807 26.8264 12.9305 26.6286 11.7673C26.1625 9.02638 23.9385 6.87994 21.1101 6.44129C20.4146 6.33348 19.118 6.33909 18.8903 6.45098ZM22.9942 8.70942C23.764 9.2398 24.2734 9.8198 24.6702 10.6174C24.961 11.2021 25.0964 11.6839 25.1703 12.3979C25.2248 12.9234 25.2234 12.9399 25.1059 13.16C24.9397 13.4709 24.744 13.5641 24.2571 13.5641C23.7734 13.5641 22.8293 13.7184 22.3355 13.8782C20.6278 14.4306 19.1553 15.6815 18.3939 17.2265C18.1429 17.7358 17.9158 18.4291 17.837 18.926L17.7743 19.3219H16.2395H14.7047V19.046C14.7046 18.3843 14.4479 17.3046 14.1041 16.5201L13.938 16.1412L14.2695 15.8387C14.4981 15.6299 14.7288 15.4776 15.0137 15.3472C15.4823 15.133 15.7163 15.0719 16.2481 15.0252C16.8419 14.973 16.8691 14.9518 17.5264 14.0274C17.8484 13.5747 18.3648 12.848 18.6742 12.4126C19.3619 11.4444 19.5124 11.2677 19.8118 11.0765C20.2027 10.827 20.5322 10.7347 21.1835 10.6924C21.845 10.6494 21.9787 10.594 22.1353 10.298C22.2093 10.1582 22.2224 9.99431 22.2224 9.209L22.2225 8.28454L22.4839 8.41121C22.6276 8.48088 22.8573 8.61508 22.9942 8.70942ZM16.4318 9.39205C16.9246 9.51353 17.6012 9.85905 17.9657 10.1754L18.2645 10.4347L18.1416 10.5959C18.074 10.6846 17.7983 11.065 17.5289 11.4412C17.1125 12.0226 17.0227 12.1219 16.9299 12.1038C16.8698 12.0921 16.6414 12.0694 16.4223 12.0534C15.8268 12.01 14.9016 11.8172 14.2307 11.5967C13.6214 11.3965 12.4145 10.8596 12.4145 10.7888C12.4145 10.7672 12.5402 10.6158 12.6937 10.4522C13.6403 9.4442 15.0366 9.04816 16.4318 9.39205ZM10.6197 11.4746C12.1391 12.3491 12.8733 12.7034 13.7465 12.9837C14.3683 13.1833 15.2901 13.3961 15.7627 13.4492C15.9201 13.4669 16.0489 13.4972 16.0489 13.5167C16.0489 13.536 15.8431 13.5882 15.5914 13.6326C14.7911 13.7737 14.0175 14.1214 13.4237 14.6068L13.1016 14.8702L12.7002 14.4529C11.7964 13.5134 10.6266 12.8084 9.36704 12.4441C8.56931 12.2135 8.19765 12.1622 7.06241 12.1265C6.10859 12.0965 5.93095 12.0785 5.68735 11.9873C5.30772 11.8452 4.8922 11.5497 4.68379 11.2736C4.52064 11.0575 4.34902 10.7694 4.34902 10.7116C4.34902 10.6971 5.45131 10.6852 6.79859 10.6852H9.24815L10.6197 11.4746ZM8.12441 16.6147C9.04119 16.9113 9.67582 17.5166 9.97972 18.3841C10.0541 18.5964 10.13 18.8953 10.1484 19.0483L10.1819 19.3266L8.93684 19.3122C7.76968 19.2988 7.6832 19.2917 7.55445 19.1989C7.33011 19.0374 7.23821 18.8822 7.18688 18.5782C7.10508 18.0936 6.82572 17.8595 6.37416 17.8971C5.79643 17.9451 5.57065 18.416 5.77054 19.1559C5.97267 19.9039 6.59222 20.4818 7.41301 20.6879C7.62928 20.7421 7.96938 20.7613 8.71583 20.7613C9.27145 20.7613 9.72601 20.7755 9.72601 20.7929C9.72601 20.8718 9.28833 21.3592 9.05911 21.5355C8.49229 21.9715 7.89868 22.1699 7.16198 22.1696C6.7379 22.1695 6.60103 22.1482 6.23874 22.0263C5.54486 21.7928 4.97066 21.353 4.63147 20.7951C4.21097 20.1036 4.10666 19.1724 4.3676 18.4395C4.53478 17.9698 4.69111 17.7095 5.00432 17.3793C5.42721 16.9334 6.05881 16.6041 6.70504 16.4928C7.09283 16.4259 7.70277 16.4783 8.12441 16.6147ZM25.1398 18.0072C25.7876 18.1851 26.3841 18.7654 26.5847 19.4133C26.8721 20.3411 26.4773 21.344 25.6177 21.8693C24.9675 22.2667 23.9584 22.2667 23.3082 21.8693C22.3535 21.2858 21.989 20.161 22.432 19.1659C22.4878 19.0406 22.5475 18.939 22.5647 18.9403C22.5819 18.9415 22.8984 19.3116 23.268 19.7627C23.6377 20.2138 24.0074 20.6229 24.0895 20.6719C24.4144 20.8656 24.9027 20.7422 25.1104 20.4139C25.2209 20.2393 25.2422 19.9018 25.1529 19.741C25.1216 19.6847 24.7938 19.2751 24.4244 18.8308C24.055 18.3866 23.7627 18.0134 23.775 18.0016C23.7873 17.9898 23.9191 17.9598 24.0679 17.9349C24.3836 17.8821 24.782 17.909 25.1398 18.0072Z" fill="black"/>
</svg>
