<svg width="30" height="30" viewBox="0 0 30 30" fill="none" xmlns="http://www.w3.org/2000/svg">
<path fill-rule="evenodd" clip-rule="evenodd" d="M7.8196 4.04666C5.85841 4.40629 4.31498 5.94316 4.03979 7.8105C4.00419 8.05203 3.99388 10.2829 4.0033 15.7016L4.01644 22.1985C4.01644 22.1985 3.9656 23.0459 4.1197 23.5548C4.47208 24.7185 5.30619 25.3951 6.38236 25.7175C6.70815 25.8151 6.74821 25.8168 8.63772 25.8168C10.5272 25.8168 10.5673 25.8151 10.8931 25.7175C11.4805 25.5416 11.9945 25.2296 12.4077 24.7983L12.6178 24.5791L12.8278 24.7983C13.2411 25.2296 13.7551 25.5416 14.3425 25.7175C14.668 25.815 14.7093 25.8168 16.5757 25.8168C18.2648 25.8168 18.5093 25.8083 18.7633 25.7407C19.611 25.5148 20.3741 24.9498 20.8007 24.2321L20.9054 24.0558L21.1125 24.3198C21.8522 25.2628 22.6534 26 23.8967 26C24.5312 26 25.1337 25.4487 24.974 24.7983C24.8143 24.148 24.0911 23.8209 23.995 22.9192C23.8967 21.9968 23.9195 22.1641 23.8967 18.4545L23.8709 14.2505L23.7684 13.9518C23.4079 12.9002 22.583 12.1115 21.5066 11.7891C21.1921 11.6949 21.1096 11.6897 19.9145 11.6897C18.7195 11.6897 18.637 11.6949 18.3225 11.7891C17.7352 11.965 17.2212 12.2769 16.8079 12.7082L16.5978 12.9274L16.3878 12.7082C15.9847 12.2875 15.4763 11.9751 14.8953 11.7908C14.5964 11.6961 14.5235 11.6922 12.776 11.6779C11.2094 11.6651 10.9212 11.6727 10.6312 11.7344C10.2261 11.8206 9.84638 11.9644 9.56715 12.1374C9.45301 12.2081 9.34648 12.2659 9.33034 12.2659C9.31424 12.2659 9.30106 11.8434 9.30106 11.3269V11.3269C9.30106 10.9581 9.6308 10.6761 9.99642 10.7246C10.2897 10.7635 10.6273 10.8037 10.9074 10.8244C11.9975 10.9052 12.9449 10.6242 13.6165 10.1288C13.9082 9.96909 14.253 9.61417 14.3893 9.33337L14.4972 9.11105L15.0532 9.10686C16.293 9.1049 16.5757 8.34396 16.5757 8.09466C16.5757 7.5119 16.2898 7.82492 15.0902 7.82488L14.5714 7.82715L14.54 7.64575C14.4851 7.32813 14.2555 6.70675 14.0709 6.37602C13.4283 5.22536 12.4173 4.45989 11.07 4.10411C10.7773 4.02686 10.5849 4.01499 9.43373 4.00321C8.4821 3.99348 8.0454 4.00526 7.8196 4.04666ZM10.749 5.36804C12.1832 5.72058 13.4984 7.0121 13.2098 8.54962C12.9606 9.87769 10.7165 9.67822 9.2582 9.40066C8.61738 9.27869 7.99504 9.73992 7.98963 10.3922C7.98187 11.3292 7.97451 12.9134 7.97451 15.5523C7.97451 21.1364 7.97933 21.5152 8.05186 21.6525C8.27173 22.0687 8.89643 22.1098 9.18737 21.7271C9.2778 21.6082 9.27926 21.5615 9.30323 18.0567C9.32508 14.8623 9.33507 14.4856 9.40282 14.2968C9.61743 13.6989 10.1068 13.2313 10.712 13.0459C10.9308 12.9789 11.1515 12.9701 12.6178 12.9701C14.084 12.9701 14.3048 12.9789 14.5236 13.0459C15.1287 13.2313 15.6181 13.6989 15.8327 14.2968C15.9005 14.4856 15.9105 14.8623 15.9323 18.0567C15.9563 21.5615 15.9578 21.6082 16.0482 21.7271C16.1656 21.8815 16.4006 21.9968 16.5978 21.9968C16.7951 21.9968 17.0301 21.8815 17.1475 21.7271C17.2379 21.6082 17.2394 21.5615 17.2633 18.0567C17.2852 14.8623 17.2952 14.4856 17.3629 14.2968C17.5776 13.6987 18.0674 13.2308 18.6721 13.0461C19.0357 12.9351 20.7934 12.9351 21.157 13.0461C21.7617 13.2308 22.2515 13.6987 22.4662 14.2968C22.5343 14.4868 22.544 14.9027 22.5683 18.6893C22.582 20.8336 22.7668 23.256 22.7668 23.256C22.7668 23.256 22.8801 23.8835 22.5683 23.8835C22.2564 23.8835 21.9928 23.3636 21.7501 22.8341C21.5983 22.5028 21.4379 21.9293 21.3487 21.3994C21.2865 21.0297 21.2686 20.5098 21.2462 18.4255C21.2197 15.9593 21.217 15.8969 21.1275 15.7794C20.8613 15.4293 20.2944 15.4293 20.0282 15.7794C19.9378 15.8984 19.9363 15.9451 19.9124 19.4499C19.8905 22.6443 19.8805 23.021 19.8128 23.2098C19.5982 23.8077 19.1088 24.2752 18.5036 24.4606C18.2848 24.5277 18.0641 24.5364 16.5978 24.5364C15.1316 24.5364 14.9108 24.5277 14.692 24.4606C14.0869 24.2752 13.5975 23.8077 13.3829 23.2098C13.3151 23.021 13.3051 22.6443 13.2833 19.4499C13.2593 15.9451 13.2579 15.8984 13.1674 15.7794C12.9012 15.4293 12.3343 15.4293 12.0681 15.7794C11.9777 15.8984 11.9762 15.9451 11.9523 19.4499C11.9304 22.6443 11.9204 23.021 11.8527 23.2098C11.6381 23.8077 11.1487 24.2752 10.5435 24.4606C10.3247 24.5277 10.104 24.5364 8.63772 24.5364C7.17147 24.5364 6.95071 24.5277 6.73194 24.4606C6.12016 24.2732 5.61584 23.7865 5.42166 23.1961C5.34768 22.9711 5.34312 22.5251 5.34312 15.4882C5.34312 8.54524 5.34852 7.99898 5.41967 7.73197C5.6858 6.73334 6.41336 5.91136 7.36985 5.52873C7.64664 5.41802 7.80501 5.3788 8.32816 5.29156C8.38897 5.28144 8.89643 5.27922 9.45584 5.28665C10.2014 5.29659 10.5467 5.31832 10.749 5.36804Z" fill="black"/>
<path d="M11.8283 7.41222C11.8283 7.78912 11.5191 8.09466 11.1376 8.09466C10.7561 8.09466 10.4469 7.78912 10.4469 7.41222C10.4469 7.03531 10.7561 6.72977 11.1376 6.72977C11.5191 6.72977 11.8283 7.03531 11.8283 7.41222Z" fill="black"/>
</svg>
