<svg width="30" height="30" viewBox="0 0 30 30" fill="none" xmlns="http://www.w3.org/2000/svg">
<path fill-rule="evenodd" clip-rule="evenodd" d="M18.5251 8.18182C16.8954 8.18182 15.5964 9.42221 15.4309 10.9552C13.2144 11.1974 11.184 12.3741 9.84694 13.9897C8.57727 15.5239 7.88441 17.5241 8.32773 19.5455H6.27272C5.87747 19.5455 5.64616 19.454 5.52178 19.3466C5.41984 19.2586 5.27272 19.0597 5.27272 18.5455C5.27272 18.3212 5.31679 18.1847 5.36496 18.0919C5.41552 17.9944 5.49443 17.8996 5.62532 17.789C5.74428 17.6886 5.87355 17.6004 6.04457 17.4837L6.15203 17.4102C6.35997 17.2675 6.61645 17.0861 6.85126 16.8513C7.32401 16.3785 7.44281 15.628 7.36867 15.0349C7.28938 14.4005 6.95573 13.654 6.18407 13.2682C5.48341 12.9179 4.81486 13.2086 4.48438 13.4024C4.29883 13.5112 4.14735 13.6302 4.04414 13.7191C3.99152 13.7645 3.94889 13.8042 3.91792 13.8342C3.90238 13.8493 3.88962 13.862 3.87984 13.8719L3.86738 13.8847L3.86285 13.8895L3.86101 13.8914L3.8602 13.8922L3.85946 13.893C3.54934 14.2217 3.56436 14.7395 3.89301 15.0496C4.22036 15.3585 4.7354 15.3448 5.04592 15.02L5.05624 15.0098C5.06759 14.9988 5.08684 14.9807 5.11246 14.9586C5.1657 14.9127 5.23604 14.8586 5.31201 14.814C5.40106 14.7618 5.45177 14.7473 5.47407 14.7436C5.60233 14.8182 5.71243 14.9778 5.74495 15.2379C5.76137 15.3693 5.75172 15.4947 5.72754 15.5913C5.70914 15.665 5.68908 15.697 5.68634 15.702C5.56753 15.8192 5.42134 15.9271 5.22612 16.061C5.19895 16.0797 5.17016 16.0993 5.14009 16.1197C4.96996 16.2354 4.75901 16.3788 4.5694 16.539C4.33451 16.7374 4.092 16.9924 3.9126 17.338C3.7308 17.6882 3.63635 18.0879 3.63635 18.5455C3.63635 19.3949 3.89625 20.105 4.45236 20.5852C4.98603 21.046 5.66382 21.1818 6.27272 21.1818H24.9091C25.8385 21.1818 26.6922 20.4092 26.5856 19.3719C26.3871 17.4405 25.6256 15.74 24.6283 14.492C23.7973 13.452 22.7386 12.6527 21.6364 12.3769V11.2931C21.6364 9.57479 20.2434 8.18182 18.5251 8.18182ZM15.7351 12.5694C13.9241 12.7304 12.2205 13.6883 11.1076 15.033C10.0065 16.3635 9.53966 17.9915 10.0197 19.5455H24.9091C24.9332 19.5455 24.949 19.5371 24.9569 19.5307C24.79 17.9231 24.1548 16.5207 23.35 15.5135C22.5245 14.4805 21.6081 13.9632 20.9282 13.9132C20.4431 13.8775 20 13.4786 20 12.9205V11.2931C20 10.4785 19.3397 9.81819 18.5251 9.81819C17.6168 9.81819 16.9252 10.6309 17.0687 11.5262C17.2497 12.0385 17.49 12.3218 17.7142 12.482C17.9486 12.6494 18.2285 12.7273 18.5454 12.7273C18.9973 12.7273 19.3636 13.0936 19.3636 13.5455C19.3636 13.9973 18.9973 14.3636 18.5454 14.3636C17.9533 14.3636 17.3242 14.2143 16.7631 13.8135C16.3437 13.5139 15.9969 13.0986 15.7351 12.5694Z" fill="black"/>
<path d="M22.511 16.0522C22.6214 16.4644 22.3768 16.8881 21.9646 16.9986C21.5523 17.109 21.1286 16.8644 21.0182 16.4522C20.9077 16.04 21.1524 15.6163 21.5646 15.5058C21.9768 15.3953 22.4005 15.64 22.511 16.0522Z" fill="black"/>
</svg>
