<svg width="30" height="30" viewBox="0 0 30 30" fill="none" xmlns="http://www.w3.org/2000/svg">
<path fill-rule="evenodd" clip-rule="evenodd" d="M12.2475 4.6197C12.0295 4.7263 11.4419 5.29327 11.1563 5.67249C10.8051 6.1387 10.4567 6.85257 10.3208 7.38406C10.2608 7.61838 10.1922 8.04974 10.1683 8.34265C10.1402 8.68595 10.1292 11.8956 10.1374 17.3747C10.1496 25.5485 10.1532 25.8791 10.2294 26.0039C10.273 26.0753 10.3779 26.1807 10.4625 26.2383L10.6164 26.3428H12.5314C14.3692 26.3428 14.4523 26.3394 14.5923 26.2576C14.6726 26.2107 14.7789 26.1183 14.8286 26.0521L14.9191 25.9318L14.9313 17.1479C14.9397 11.0635 14.9292 8.25552 14.8972 8.01115C14.7588 6.95376 14.24 5.91111 13.4674 5.13755C12.9051 4.57467 12.6024 4.44618 12.2475 4.6197ZM17.9799 4.68071C17.7085 4.85892 17.2411 5.32126 16.9695 5.6799C16.6796 6.06282 16.3039 6.81444 16.1706 7.27785C15.9652 7.99231 15.9666 7.9178 15.9803 17.1905L15.9931 25.9318L16.0836 26.0521C16.1333 26.1183 16.2396 26.2107 16.3199 26.2576C16.4599 26.3394 16.543 26.3428 18.3776 26.3428C20.2133 26.3428 20.2952 26.3394 20.4321 26.2576C20.5105 26.2107 20.6169 26.1053 20.6684 26.0233L20.7621 25.8742L20.7744 17.3321C20.7825 11.7178 20.7716 8.62068 20.7425 8.29604C20.6259 6.99449 20.0871 5.87933 19.1548 5.00957C18.62 4.51072 18.3527 4.43587 17.9799 4.68071ZM5.84582 4.76826C5.66155 4.82113 5.45851 5.03062 5.40442 5.22366C5.37718 5.32092 5.36008 6.09819 5.35995 7.2456L5.35969 9.10952H5.2229C4.71687 9.10952 4.36891 9.69481 4.64006 10.0898C4.84332 10.386 4.90806 10.4075 5.64192 10.4226L6.30489 10.4362V17.0309V23.6255L6.06996 23.6496C5.64867 23.6927 5.38835 23.9404 5.38835 24.2982C5.38835 24.6675 5.64269 24.9209 6.04204 24.9496L6.29591 24.9678L6.31138 25.4501C6.32439 25.8574 6.34076 25.9511 6.41646 26.0524C6.73564 26.4795 7.3034 26.4645 7.53901 26.0227C7.62228 25.8666 7.63675 25.7749 7.63675 25.4039V24.9684L7.89509 24.9499C8.436 24.9111 8.73713 24.4289 8.487 24.002C8.36155 23.7878 8.17517 23.6807 7.87482 23.6499L7.63675 23.6255V17.0279V10.4302H8.24615C8.9422 10.4302 9.15212 10.3677 9.3107 10.1133C9.42726 9.92632 9.42751 9.605 9.3113 9.41592C9.21351 9.25688 8.93416 9.1119 8.72283 9.11045L8.58444 9.10952L8.57246 7.13909L8.56047 5.16865L8.45731 5.02521C8.25904 4.74956 8.128 4.7228 6.9923 4.72608C6.437 4.7277 5.9211 4.74666 5.84582 4.76826ZM22.7169 4.81538C22.5758 4.88666 22.4975 4.96437 22.4269 5.10313C22.331 5.29182 22.3302 5.30729 22.3302 7.20137V9.10952L22.1906 9.11045C21.9755 9.1119 21.7104 9.25169 21.6065 9.4184C21.4848 9.61373 21.4825 9.92244 21.6015 10.1133C21.7601 10.3677 21.97 10.4302 22.666 10.4302H23.2754V17.0279V23.6255L23.0374 23.6499C22.7224 23.6821 22.5452 23.7896 22.4243 24.0219C22.1927 24.4664 22.4769 24.9111 23.0171 24.9499L23.2754 24.9684V25.3972C23.2754 25.7389 23.2929 25.8617 23.3614 26.002C23.5242 26.3357 23.9696 26.467 24.264 26.2683C24.5441 26.0793 24.5838 25.9828 24.6008 25.4501L24.6163 24.9678L24.8702 24.9496C25.1763 24.9276 25.3211 24.8347 25.4577 24.5722C25.5308 24.432 25.5493 24.3444 25.5293 24.2339C25.4667 23.8875 25.2341 23.6897 24.8422 23.6496L24.6073 23.6255V17.0309V10.4362L25.2703 10.4226C26.0058 10.4074 26.0675 10.3868 26.276 10.0855C26.3573 9.96799 26.3731 9.8991 26.359 9.72429C26.3492 9.60279 26.3052 9.45866 26.2585 9.39475C26.1548 9.25292 25.8694 9.10952 25.6909 9.10952H25.5558L25.5434 7.16039C25.5315 5.28854 25.5275 5.20542 25.4436 5.06363C25.3955 4.98247 25.2891 4.87703 25.2073 4.82931C25.0701 4.74939 24.9743 4.74163 23.9843 4.73017C22.9371 4.71807 22.9054 4.72016 22.7169 4.81538ZM7.25008 7.57578V9.10952H6.97082H6.69156V7.57578V6.04203H6.97082H7.25008V7.57578ZM24.2206 7.57578V9.10952H23.9414H23.6621V7.57578V6.04203H23.9414H24.2206V7.57578ZM12.7146 6.24606C13.0892 6.65715 13.3835 7.22229 13.5224 7.79655C13.6028 8.12912 13.6081 8.30081 13.6084 10.5857L13.6087 13.0206L13.2972 12.9113C12.7696 12.7263 12.1292 12.7613 11.5338 13.0077C11.4599 13.0383 11.4572 12.9316 11.4706 10.5527C11.4864 7.72131 11.4808 7.77163 11.8702 7.00062C12.0545 6.6358 12.4519 6.08464 12.5307 6.08464C12.551 6.08464 12.6337 6.15728 12.7146 6.24606ZM18.6312 6.35091C18.9184 6.71028 19.1635 7.17696 19.3081 7.63968L19.4279 8.02312L19.442 10.5261C19.4498 11.9028 19.4445 13.0291 19.4303 13.0291C19.4161 13.0291 19.3515 13.0019 19.2868 12.9688C19.2222 12.9356 19.0153 12.8766 18.8271 12.8377C18.4088 12.7511 18.0021 12.7788 17.5888 12.922L17.2997 13.0221L17.3124 10.48L17.325 7.93791L17.4636 7.53317C17.5399 7.31057 17.6875 6.98465 17.7918 6.8089C17.9832 6.48648 18.3096 6.08464 18.3802 6.08464C18.4012 6.08464 18.5142 6.20448 18.6312 6.35091ZM12.8866 14.1443C13.1072 14.2098 13.4287 14.4935 13.528 14.7103C13.5981 14.8635 13.6068 15.0085 13.6073 16.0327C13.6078 17.1528 13.6051 17.1886 13.5064 17.399C13.2632 17.9168 12.5929 18.1521 12.084 17.8983C11.8977 17.8054 11.6822 17.5928 11.5749 17.396C11.4861 17.2331 11.482 17.174 11.482 16.0529C11.482 14.8851 11.4824 14.8793 11.5896 14.6728C11.8305 14.2084 12.3668 13.9898 12.8866 14.1443ZM18.9132 14.2402C19.147 14.376 19.333 14.6143 19.4053 14.8703C19.4415 14.9983 19.4531 15.3835 19.4437 16.1398C19.4288 17.3355 19.4235 17.3622 19.1354 17.666C18.6249 18.2044 17.7488 18.0736 17.4148 17.409L17.3035 17.1875V16.0442C17.3035 15.1706 17.3174 14.8679 17.3626 14.7607C17.455 14.5415 17.6909 14.3033 17.9262 14.1917C18.2195 14.0525 18.6245 14.0724 18.9132 14.2402ZM12.4487 19.2803C12.8794 19.2965 13.1928 19.2449 13.5335 19.1014C13.6047 19.0714 13.6087 19.2283 13.6087 22.0566V25.0434H12.5346H11.4605V22.0448V19.0461L11.729 19.1547C11.9417 19.2407 12.0913 19.2668 12.4487 19.2803ZM17.5843 19.1745C17.801 19.2554 17.9234 19.2699 18.3776 19.2686C18.8293 19.2673 18.9522 19.2521 19.151 19.173C19.2809 19.1212 19.4017 19.0789 19.4195 19.0789C19.4372 19.0788 19.4517 20.4209 19.4517 22.0611V25.0434H18.3776H17.3035V22.0611C17.3035 20.4209 17.309 19.0788 17.3158 19.0788C17.3225 19.0788 17.4433 19.1219 17.5843 19.1745Z" fill="black"/>
</svg>
