<svg width="30" height="30" viewBox="0 0 30 30" fill="none" xmlns="http://www.w3.org/2000/svg">
<path fill-rule="evenodd" clip-rule="evenodd" d="M22.1803 3.66639C20.8385 3.87678 19.7904 5.15194 19.7904 6.57411C19.7904 7.02238 19.8896 7.45343 20.0925 7.886C20.2357 8.19138 20.3403 8.33676 20.6367 8.64258C21.2339 9.25864 21.8163 9.50758 22.6448 9.50105C23.0031 9.4982 23.1603 9.47459 23.4333 9.38262C25.1261 8.81237 25.9042 6.84796 25.0883 5.20441C24.8624 4.74916 24.3115 4.1814 23.8809 3.9599C23.3441 3.68378 22.7373 3.57905 22.1803 3.66639ZM13.0382 3.72767C12.3918 3.86766 11.756 4.15423 11.1922 4.55981C10.8295 4.82067 10.2475 5.43744 9.98869 5.83496C9.72062 6.24681 9.44301 6.88603 9.31573 7.3845C9.2139 7.78323 9.20311 7.91086 9.18564 8.92404L9.16658 10.0288L8.90252 9.54663C8.7573 9.28145 8.50385 8.84355 8.33936 8.57348C7.73856 7.58711 7.5615 7.39731 7.24169 7.397C6.92464 7.39669 6.79251 7.5249 6.28484 8.32551C4.88398 10.5349 3.99312 12.7138 3.73724 14.5566C3.65114 15.1765 3.67373 16.5369 3.78221 17.2693C4.12969 19.6154 5.04254 21.3667 6.23033 21.9663L6.5723 22.1389L6.57375 23.5731L6.5752 25.0073H5.37386C4.25961 25.0073 4.15974 25.0137 3.9964 25.0962C3.66256 25.2648 3.53115 25.7257 3.72999 26.0305C3.78276 26.1114 3.88003 26.2194 3.94623 26.2706L4.0666 26.3636H14.5461H25.0255L25.1459 26.2706C25.4554 26.0313 25.5394 25.6817 25.3649 25.358C25.2396 25.1253 25.0009 25.0073 24.656 25.0073H24.3924V22.0706V19.134L24.4843 19.1853C24.6398 19.2721 24.9747 19.2546 25.1066 19.1526C25.3298 18.9801 25.4249 18.7834 25.4057 18.5336C25.3959 18.4062 25.3537 18.2612 25.3087 18.2001C25.2649 18.1407 24.8011 17.6954 24.278 17.2106L23.3268 16.3292L23.3266 14.5202C23.3265 12.7934 23.3226 12.7045 23.2417 12.5662C22.9981 12.1492 22.4009 12.1351 22.1462 12.5401C22.0783 12.6482 22.0669 12.8053 22.048 13.896L22.0267 15.1296L20.3776 13.609L18.7285 12.0885L18.7246 10.2207C18.7224 9.19344 18.7021 8.20286 18.6793 8.01941C18.6116 7.47296 18.4765 7.00352 18.2378 6.48517C17.6282 5.16127 16.5375 4.208 15.1809 3.81332C14.8379 3.71353 14.6766 3.69449 14.0559 3.68053C13.5396 3.66892 13.247 3.68244 13.0382 3.72767ZM14.8231 5.10884C15.5578 5.31728 16.2426 5.79614 16.6959 6.41846C16.9603 6.78148 17.0871 7.03105 17.2416 7.49279L17.3806 7.90824L17.3939 9.36697L17.4072 10.8257L17.2358 10.7344C17.0399 10.6302 16.8617 10.6186 16.6906 10.6988C16.6254 10.7294 16.121 11.171 15.5697 11.6801L14.5674 12.6059L14.5461 10.724C14.5262 8.96851 14.5193 8.83372 14.4436 8.71725C14.3436 8.5632 14.083 8.41965 13.9035 8.41965C13.7103 8.41965 13.4622 8.58139 13.3576 8.7756C13.2725 8.93351 13.2673 9.00555 13.2673 10.0228V11.1025L12.9766 10.8096C12.6519 10.4827 12.4832 10.4165 12.1998 10.5051C11.9964 10.5687 11.7905 10.8189 11.7535 11.0472C11.7057 11.3421 11.8324 11.5355 12.5807 12.3103L13.2673 13.0214L13.2655 13.4221L13.2637 13.8229L12.2564 14.7498L11.249 15.6767L11.17 15.5725C11.1265 15.5152 11.0171 15.3382 10.9269 15.1792C10.794 14.9453 10.7536 14.8181 10.7149 14.5122C10.6885 14.3043 10.6181 13.924 10.5585 13.6672L10.4499 13.2003L10.4654 10.621C10.4829 7.69318 10.4729 7.79079 10.8368 7.01882C11.3455 5.93987 12.2917 5.22015 13.4591 5.02417C13.7039 4.98308 14.5691 5.03676 14.8231 5.10884ZM23.253 5.14406C23.9054 5.47711 24.2504 6.23484 24.0768 6.95372C23.8938 7.71199 23.2541 8.19418 22.499 8.14318C22.1197 8.11756 21.8585 7.99869 21.5763 7.72328C20.9276 7.09015 20.9233 6.06216 21.5669 5.43415C21.9248 5.08483 22.1711 4.99011 22.6707 5.00972C22.9425 5.02035 23.0669 5.04907 23.253 5.14406ZM7.48789 9.70148C8.53407 11.5076 9.19847 13.1945 9.43516 14.6456C9.50656 15.0832 9.49501 16.2645 9.413 16.9136C9.34092 17.4839 9.40247 17.3786 8.81974 17.9288C8.55722 18.1766 8.45104 18.3618 8.45087 18.5723C8.45066 18.7808 8.53497 18.9575 8.70632 19.1079L8.83714 19.2228L8.70282 19.5024C8.51792 19.8873 8.23463 20.2938 8.00326 20.5063C7.42843 21.0342 6.88799 20.9871 6.32572 20.36C5.55029 19.4952 5.05755 17.8894 4.97276 15.951C4.91117 14.5423 5.27472 13.1086 6.16878 11.2343C6.47751 10.5871 7.21104 9.24374 7.23828 9.27576C7.24348 9.28185 7.35579 9.47343 7.48789 9.70148ZM20.0149 15.0721L23.071 17.9001V21.4537V25.0073H19.4905H15.91V22.1706V19.3339L15.8141 19.138C15.6243 18.7503 15.6722 18.7608 14.034 18.7463C12.4176 18.732 12.3892 18.7363 12.1753 19.0288L12.0525 19.1968L12.0406 22.102L12.0288 25.0073H11.4119H10.7951V21.4544V17.9015L13.8518 15.0728C15.533 13.517 16.9198 12.2441 16.9336 12.2441C16.9474 12.2441 18.334 13.5167 20.0149 15.0721ZM17.6342 18.7987C17.4627 18.8776 17.2837 19.1046 17.2521 19.2829C17.2382 19.3617 17.2326 20.1966 17.2397 21.1383C17.2526 22.8261 17.2541 22.8524 17.3475 22.9891C17.5649 23.307 17.4839 23.2951 19.4341 23.2951C21.1403 23.2951 21.1925 23.2926 21.307 23.2034C21.3717 23.153 21.4642 23.0565 21.5126 22.989C21.598 22.8696 21.6005 22.8152 21.6005 21.0271C21.6005 19.2391 21.598 19.1847 21.5126 19.0653C21.4642 18.9977 21.3717 18.9012 21.307 18.8508C21.1933 18.7622 21.1321 18.7588 19.4768 18.749C18.118 18.7409 17.7374 18.7512 17.6342 18.7987ZM14.5887 22.5391V25.0073H13.9706H13.3526V22.5391V20.071H13.9706H14.5887V22.5391ZM20.3332 21.016L20.3448 21.9388H19.4488H18.5528V21.004V20.0692L19.4373 20.0812L20.3217 20.0932L20.3332 21.016ZM9.47369 22.9171V25.0073H8.68513H7.89657V23.5724V22.1376L8.18429 21.9968C8.54686 21.8193 8.91629 21.5084 9.21782 21.1269C9.34684 20.9637 9.4572 20.8294 9.46304 20.8286C9.46888 20.8277 9.47369 21.7676 9.47369 22.9171Z" fill="black"/>
</svg>
