<svg width="3031" height="773" viewBox="0 0 3031 773" fill="none" xmlns="http://www.w3.org/2000/svg">
<g clip-path="url(#clip0)">
<path d="M987.92 360.899H959.195C955.03 361.326 950.844 360.313 947.345 358.032C946.068 356.444 945.125 354.618 944.572 352.663C944.018 350.708 943.864 348.662 944.12 346.647V297.533C944.12 287.561 949.145 282.575 959.195 282.575H987.92C988.992 282.721 990.083 282.618 991.108 282.274C992.133 281.93 993.064 281.355 993.827 280.594C994.59 279.833 995.165 278.906 995.506 277.887C995.847 276.868 995.945 275.785 995.792 274.722V207.077C995.792 197.146 1001.03 192.16 1011.58 192.16H1071.83C1081.88 192.16 1086.91 197.132 1086.91 207.077V274.722C1086.91 279.957 1089.8 282.575 1095.53 282.575H1151.48C1161.53 282.575 1166.55 287.561 1166.55 297.533V346.647C1166.97 350.607 1165.81 354.572 1163.33 357.699C1159.93 360.216 1155.69 361.359 1151.48 360.899H1095.53C1089.8 360.899 1086.91 363.516 1086.91 368.71V526.064C1086.91 540.801 1090.26 551.368 1096.96 557.767C1103.66 564.166 1114.67 567.366 1130 567.366H1158.68C1168.73 567.366 1173.75 572.352 1173.75 582.324V631.479C1174.16 635.432 1172.99 639.386 1170.49 642.49C1167.11 645.023 1162.88 646.169 1158.68 645.689H1114.92C1077.12 645.689 1047.81 635.731 1026.99 615.814C1006.16 595.897 995.764 567.407 995.792 530.344V368.71C995.946 367.649 995.849 366.566 995.508 365.549C995.167 364.531 994.592 363.607 993.827 362.848C993.063 362.09 992.131 361.519 991.106 361.18C990.08 360.842 988.99 360.746 987.92 360.899Z" fill="#0C0C0C"/>
<path d="M1379.65 645.691H1297.87C1288.79 645.691 1283.06 640.705 1280.66 630.733L1208.89 297.535C1206.96 287.563 1210.55 282.577 1219.65 282.577H1288.53C1299.03 282.577 1304.78 287.563 1305.78 297.535L1338.07 541.024H1343.8L1394.72 297.535C1396.19 287.563 1401.67 282.577 1411.47 282.577H1474.41C1478.77 282.252 1483.09 283.636 1486.44 286.432C1489.79 289.227 1491.9 293.213 1492.33 297.535L1541.82 541.024H1547.56L1580.6 297.535C1580.67 295.408 1581.18 293.317 1582.09 291.393C1583.01 289.469 1584.32 287.753 1585.93 286.35C1587.54 284.948 1589.43 283.889 1591.47 283.24C1593.52 282.591 1595.67 282.365 1597.81 282.577H1666.69C1676.24 282.577 1679.82 287.563 1677.45 297.535L1605.68 630.733C1603.81 640.705 1598.07 645.691 1588.47 645.691H1506.65C1497.07 645.691 1491.32 640.705 1489.4 630.733L1445.64 390.111H1439.9L1396.9 630.733C1396.83 632.864 1396.32 634.958 1395.4 636.886C1394.48 638.813 1393.17 640.531 1391.55 641.934C1389.93 643.338 1388.04 644.395 1385.99 645.041C1383.94 645.688 1381.78 645.909 1379.65 645.691Z" fill="#0C0C0C"/>
<path d="M1736.28 221.328V159.417C1736.28 149.888 1741.07 145.137 1750.64 145.165H1813.08C1822.62 145.165 1827.44 149.652 1827.44 158.669V221.328C1827.44 230.843 1822.62 235.58 1813.08 235.58H1750.64C1741.07 235.58 1736.28 230.829 1736.28 221.328ZM1736.28 630.73V297.532C1736.28 287.56 1741.07 282.574 1750.64 282.574H1812.32C1822.33 282.574 1827.4 287.56 1827.4 297.532V630.73C1827.4 636.921 1826.31 640.951 1824.13 642.863C1820.88 645.07 1816.95 646.07 1813.03 645.688H1751.35C1741.3 645.688 1736.28 640.702 1736.28 630.73Z" fill="#0C0C0C"/>
<path d="M2039.11 629.483H2015.41C1978.57 629.483 1950.65 619.511 1931.67 599.567C1912.68 579.622 1903.29 550.814 1903.49 513.141V398.626C1903.49 361.147 1913.77 332.435 1934.35 312.491C1954.92 292.546 1984.09 282.574 2021.86 282.574H2187.64C2198.14 282.574 2203.4 287.56 2203.43 297.533V648.555C2203.43 685.563 2193.01 714.04 2172.19 733.984C2151.36 753.929 2122.3 763.901 2085.01 763.901H1947.24C1943.03 764.362 1938.79 763.218 1935.39 760.701C1932.93 757.566 1931.77 753.608 1932.17 749.649V700.536C1932.17 690.563 1937.19 685.577 1947.24 685.577H2069.93C2085.26 685.577 2096.15 682.378 2102.59 675.979C2109.04 669.58 2112.27 659.012 2112.27 644.276V590.259H2109.63C2104.3 603.082 2094.32 613.458 2081.66 619.345C2068.48 626.013 2053.9 629.487 2039.11 629.483ZM2112.27 497.06V368.709C2112.27 363.515 2109.42 360.898 2103.89 360.898H2036.22C2020.9 360.898 2010.14 364.097 2003.94 370.496C1997.74 376.895 1994.63 387.698 1994.6 402.906V508.986C1994.6 524.193 1997.72 534.872 2003.94 541.021C2010.17 547.171 2020.93 550.26 2036.22 550.287H2062.77C2095.77 550.287 2112.27 532.49 2112.27 496.894V497.06Z" fill="#0C0C0C"/>
<path d="M2282.35 630.731V159.958C2282.35 149.986 2287.34 145 2297.39 145H2358.4C2368.45 145 2373.47 149.986 2373.47 159.958V320.137H2376.32C2381.66 307.321 2391.64 296.948 2404.29 291.052C2417.43 284.464 2431.95 281.047 2446.67 281.079H2469.74C2507.51 281.079 2536.69 291.038 2557.29 310.955C2577.9 330.871 2588.17 359.597 2588.11 397.131V529.762C2588.11 567.269 2577.84 595.994 2557.29 615.939C2536.75 635.883 2507.56 645.8 2469.74 645.689H2297.39C2287.34 645.689 2282.35 640.703 2282.35 630.731ZM2381.34 567.366H2454.54C2469.86 567.366 2480.71 564.166 2487.2 557.768C2493.69 551.369 2496.87 540.565 2496.87 525.358V401.494C2496.87 386.287 2493.65 375.483 2487.2 369.084C2480.71 362.686 2469.86 359.486 2454.54 359.486H2422.96C2389.94 359.431 2373.43 377.409 2373.43 413.419V559.388C2373.24 560.466 2373.32 561.572 2373.65 562.615C2373.98 563.658 2374.55 564.609 2375.33 565.388C2376.1 566.167 2377.05 566.753 2378.09 567.097C2379.14 567.441 2380.25 567.533 2381.34 567.366Z" fill="#0C0C0C"/>
<path d="M2663.32 221.328V159.417C2663.32 149.888 2668.11 145.137 2677.68 145.165H2740.12C2749.67 145.165 2754.48 149.652 2754.48 158.669V221.328C2754.48 230.843 2749.67 235.58 2740.12 235.58H2677.68C2668.11 235.58 2663.32 230.829 2663.32 221.328ZM2663.32 630.73V297.532C2663.32 287.56 2668.11 282.574 2677.68 282.574H2739.41C2749.46 282.574 2754.48 287.56 2754.48 297.532V630.73C2754.48 636.921 2753.39 640.951 2751.26 642.863C2748 645.079 2744.05 646.08 2740.12 645.688H2678.4C2668.35 645.688 2663.32 640.702 2663.32 630.73Z" fill="#0C0C0C"/>
<path d="M2844.88 360.899H2816.15C2812 361.334 2807.83 360.32 2804.35 358.032C2803.05 356.453 2802.1 354.63 2801.53 352.672C2800.97 350.715 2800.82 348.665 2801.08 346.647V297.533C2801.08 287.561 2806.15 282.575 2816.15 282.575H2844.88C2845.95 282.721 2847.04 282.618 2848.07 282.274C2849.09 281.93 2850.02 281.355 2850.79 280.594C2851.55 279.833 2852.12 278.906 2852.47 277.887C2852.81 276.868 2852.9 275.785 2852.75 274.722V207.077C2852.75 197.132 2858.01 192.16 2868.54 192.16H2928.84C2938.89 192.16 2943.91 197.132 2943.91 207.077V274.722C2943.91 279.957 2946.76 282.575 2952.29 282.575H3008.27C3018.32 282.575 3023.34 287.561 3023.34 297.533V346.647C3023.74 350.605 3022.59 354.564 3020.12 357.699C3016.72 360.216 3012.49 361.359 3008.27 360.899H2952.49C2946.76 360.899 2944.12 363.516 2944.12 368.71V526.064C2944.12 540.814 2947.43 551.368 2954.17 557.767C2960.91 564.166 2971.84 567.366 2987.17 567.366H3015.85C3025.9 567.366 3030.92 572.352 3030.92 582.324V631.479C3031.32 635.424 3030.16 639.369 3027.7 642.49C3024.3 645.007 3020.06 646.15 3015.85 645.689H2971.88C2934.08 645.689 2904.77 635.731 2883.95 615.814C2863.12 595.897 2852.71 567.407 2852.71 530.344V368.71C2852.86 367.653 2852.77 366.575 2852.43 365.561C2852.09 364.547 2851.52 363.625 2850.76 362.867C2850 362.11 2849.07 361.538 2848.05 361.196C2847.03 360.855 2845.95 360.753 2844.88 360.899Z" fill="#0C0C0C"/>
<rect width="773" height="773" rx="75" fill="white"/>
<path d="M695.771 0.0838625L322.79 0.00183105C340.279 19.9198 357.612 45.5018 366.263 59.0018C385.093 88.3844 400.241 124.002 411.234 154.002C425.011 188.458 436.717 224.002 448.709 259.002L491.682 228.502C491.682 228.502 606.607 147.002 628.592 142.502C640.085 140.15 610.672 173.655 599.611 186.502C571.629 219.002 458.203 331.502 458.203 331.502C458.203 331.502 449.708 404.002 438.716 494.502C434.598 531.512 433.165 576.085 431.221 603.002C430.72 671.502 445.711 720.002 461.201 773.002H695.771C696.462 773.002 697.194 773.001 697.964 773.001C739.397 772.984 772.982 739.397 772.999 697.965C772.999 697.182 773 696.438 773 695.736V77.3506C773 76.6488 772.999 75.9045 772.999 75.1213C772.982 33.6885 739.397 0.102381 697.964 0.0849096C697.194 0.0845849 696.462 0.0842363 695.771 0.0838625Z" fill="#00DA91"/>
<path d="M50.967 508.5C40.4738 502.337 20.9864 491.499 0 478.612V696.782C0.000203563 697.158 0.000399648 697.546 0.00058846 697.946C0.0201768 739.378 33.6015 772.98 75.0344 772.998C75.703 772.998 76.3424 772.999 76.9502 772.999C76.9502 772.999 337.781 772.999 339.78 772.999C337.781 766.999 319.793 657.499 319.793 657.499C319.793 657.499 110.231 543.306 50.967 508.5Z" fill="#00DA91"/>
<path d="M223.372 544.418L332.285 581C332.285 581 356.769 493.5 365.264 435C380.997 326.648 379.754 273 360.267 200.5C347.233 152.011 322.791 88.0275 308.8 61.5C300.443 45.6536 288.314 20 274.822 1.59442e-05H82.4466L74.9879 1.45018e-05C33.5713 6.49231e-06 -0.0197826 33.6065 -0.0021403 75.0231C-0.00153738 76.4385 -0.000819116 77.567 2.95416e-05 78.3505V438.638C79.9483 477 210.364 541 223.372 544.418Z" fill="#00DA91"/>
</g>
<defs>
<clipPath id="clip0">
<rect width="3031" height="773" fill="white"/>
</clipPath>
</defs>
</svg>
