<svg width="24" height="24" viewBox="0 0 24 24" fill="none" xmlns="http://www.w3.org/2000/svg">
<path fill-rule="evenodd" clip-rule="evenodd" d="M12 24C18.6274 24 24 18.6274 24 12C24 5.37258 18.6274 0 12 0C5.37258 0 0 5.37258 0 12C0 18.6274 5.37258 24 12 24ZM10.7072 8.1604C11.301 7.46199 12.0233 7.04441 12.9124 6.88536C13.0483 6.86103 13.2706 6.85261 13.5967 6.85942C14.003 6.86786 14.123 6.88039 14.3518 6.93819C15.7836 7.29994 16.8454 8.44138 17.096 9.88827C17.1239 10.0493 17.155 10.2014 17.1651 10.2262C17.1752 10.2509 17.2514 10.3036 17.3345 10.3432C18.0518 10.6848 18.5789 11.331 18.7949 12.1335C18.8775 12.4406 18.878 13.0595 18.7959 13.3874C18.5307 14.4462 17.6754 15.2371 16.6158 15.4031C16.4666 15.4265 15.2375 15.4325 11.8658 15.4263L7.31707 15.418L7.10238 15.3559C6.15246 15.081 5.44431 14.3462 5.20372 13.3858C5.122 13.0595 5.12268 12.4398 5.20512 12.1335C5.4372 11.2711 5.9871 10.6359 6.80055 10.2904C6.90022 10.2481 6.99423 10.1983 7.00945 10.1799C7.02469 10.1615 7.06154 10.057 7.09138 9.94777C7.31476 9.12991 7.96441 8.48428 8.77342 8.27612C9.20553 8.16496 9.72331 8.18809 10.1161 8.33611C10.2002 8.3678 10.3184 8.39914 10.3787 8.40572C10.4883 8.41768 10.4885 8.41752 10.7072 8.1604Z" fill="#2FAD66"/>
</svg>
