<svg width="24" height="24" viewBox="0 0 24 24" fill="none" xmlns="http://www.w3.org/2000/svg">
<path fill-rule="evenodd" clip-rule="evenodd" d="M24 12C24 18.6274 18.6274 24 12 24C5.37258 24 0 18.6274 0 12C0 5.37258 5.37258 0 12 0C18.6274 0 24 5.37258 24 12ZM8.30873 9.15247C9.71569 7.80189 12.0935 7.02442 15.3289 6.8571C16.5782 6.79249 18.3869 6.87143 18.6441 7.00183C18.822 7.09203 18.8791 7.28066 18.7992 7.51443C18.7311 7.71361 18.66 7.77072 18.2778 7.93317C16.157 8.83459 14.0677 10.1354 12.3992 11.5932C10.1515 13.5569 8.58605 15.8266 7.75286 18.3297C7.64242 18.6615 7.58774 18.7444 7.44061 18.8031C7.287 18.8643 7.1532 18.8351 7.03154 18.7136C6.88703 18.5693 6.88032 18.4876 6.98574 18.1559C7.12964 17.7029 7.33522 17.1761 7.56712 16.6658L7.68873 16.3982L7.59865 16.1704C7.5491 16.0451 7.43673 15.7315 7.34893 15.4735C6.6699 13.4779 6.66317 11.8249 7.3286 10.4758C7.57924 9.9677 7.87391 9.56985 8.30873 9.15247ZM14.6465 10.8861C15.567 10.2423 16.4327 9.72851 17.5523 9.16173C17.9404 8.96527 18.2617 8.80833 18.2664 8.81297C18.271 8.81761 18.2374 8.95673 18.1916 9.1221C17.9119 10.1321 17.6888 11.3408 17.5173 12.7765C17.3994 13.7633 17.2385 14.4031 16.942 15.0645C16.2863 16.5274 15.0325 17.5182 13.4463 17.8268C12.9856 17.9165 12.7643 17.9357 12.2109 17.9339C11.4968 17.9317 10.9655 17.8621 10.2552 17.6778C9.77114 17.5522 8.95176 17.2656 8.95176 17.2219C8.95176 17.2116 9.03746 17.0409 9.1422 16.8426C10.3105 14.6306 12.1701 12.6182 14.6465 10.8861Z" fill="#FFC34E"/>
</svg>
