<svg width="1002" height="372" viewBox="0 0 1002 372" fill="none"
    xmlns="http://www.w3.org/2000/svg">
    <g clip-path="url(#clip0)">
        <path
            d="M162.13 233.48C144.54 253.46 119.2 264.91 92.58 264.9C76.04 264.93 62.63 278.33 62.61 294.87C62.49 284.08 68.18 274.07 77.5 268.64C86.82 263.21 98.34 263.21 107.66 268.64C116.98 274.07 122.67 284.08 122.55 294.87V369.48H185.39V294.87C185.41 272.25 177.14 250.41 162.13 233.48Z"
            fill="#00A19A" />
        <path
            d="M185.39 140.65H122.55V172.07C122.52 188.61 109.12 202.02 92.58 202.04C82.38 202.03 72.26 203.71 62.61 207C98.08 194.9 137.35 205.34 162.13 233.46C177.13 216.53 185.41 194.69 185.39 172.07V140.65Z"
            fill="#00B3E3" />
        <path
            d="M92.59 202.06C82.39 202.05 72.27 203.73 62.62 207.02V294.87C62.65 278.33 76.05 264.92 92.59 264.9C119.21 264.91 144.55 253.46 162.14 233.48C144.55 213.5 119.21 202.05 92.59 202.06Z"
            fill="#008D36" />
        <path d="M62.61 5.67999H-0.22998V294.85C-0.17998 255.16 25.06 219.87 62.61 207V5.67999Z"
            fill="#00A19A" />
        <path
            d="M62.61 207.01C25.06 219.88 -0.17998 255.16 -0.22998 294.86V369.47H62.61V294.86V207.01Z"
            fill="#008D36" />
        <path d="M279.65 5.98999H216.81V369.47H279.65V5.98999Z" fill="#0097E2" />
        <path d="M373.91 140.8H311.07V369.16H373.91V140.8Z" fill="#C69475" />
        <path
            d="M505.8 140.34C492.9 140.33 480.13 142.81 468.18 147.65V240.81C468.18 220.03 485.02 203.19 505.8 203.19C526.58 203.19 543.42 220.03 543.42 240.81V369.18V240.81C543.41 213.22 554.77 186.84 574.84 167.9C556.22 150.2 531.49 140.33 505.8 140.35"
            fill="#1D71B8" />
        <path d="M468.17 147.65C430.22 163.02 405.38 199.86 405.33 240.8V369.17H468.17V147.65Z"
            fill="#00A19A" />
        <path
            d="M643.88 140.34C618.18 140.32 593.46 150.18 574.84 167.89C594.91 186.83 606.27 213.21 606.26 240.8C606.26 220.02 623.1 203.18 643.88 203.18C664.66 203.18 681.5 220.02 681.5 240.8V369.17H744.34V240.81C744.28 185.35 699.34 140.42 643.88 140.35"
            fill="#2FAC66" />
        <path
            d="M574.84 167.89C554.77 186.83 543.41 213.21 543.42 240.8V369.17H606.26V240.81C606.27 213.22 594.91 186.84 574.84 167.9"
            fill="#006633" />
        <path
            d="M884.19 137.56C836.81 137.56 794.1 166.1 775.97 209.87C757.84 253.64 767.86 304.02 801.36 337.52C834.86 371.02 885.24 381.04 929.01 362.91C972.78 344.78 1001.32 302.07 1001.32 254.69C1001.24 190.03 948.84 137.64 884.19 137.56ZM884.19 307.44C862.85 307.44 843.61 294.59 835.44 274.87C827.27 255.16 831.79 232.46 846.87 217.37C861.96 202.28 884.65 197.77 904.37 205.93C924.09 214.1 936.94 233.33 936.94 254.67C936.91 283.8 913.31 307.41 884.19 307.44Z"
            fill="#008C36" />
        <path
            d="M342.49 75.73C363.261 75.73 380.1 58.8914 380.1 38.12C380.1 17.3486 363.261 0.51001 342.49 0.51001C321.719 0.51001 304.88 17.3486 304.88 38.12C304.88 58.8914 321.719 75.73 342.49 75.73Z"
            fill="#95C11F" />
        <path
            d="M92.59 202.06C82.39 202.05 72.27 203.73 62.62 207.02V294.87C62.65 278.33 76.05 264.92 92.59 264.9C119.21 264.91 144.55 253.46 162.14 233.48C144.55 213.5 119.21 202.05 92.59 202.06Z"
            fill="#006633" />
        <path d="M468.17 147.92C430.22 163.29 405.38 200.13 405.33 241.07V369.44H468.17V147.92Z"
            fill="#00299F" />
        <path
            d="M468.17 140.35H405.33V369.01V240.65C405.37 199.71 430.22 162.87 468.17 147.5V140.36"
            fill="#00B3E3" />
    </g>
    <defs>
        <clipPath id="clip0">
            <rect width="1002" height="372" fill="white" />
        </clipPath>
    </defs>
</svg>
